Ubuntu-Condensed_Light.ufo
<glyph name="dollar" format="2">
  <advance width="430"/>
  <unicode hex="0024"/>
  <outline>
    <contour>
      <point x="187" y="-109" type="line"/>
      <point x="243" y="-109" type="line"/>
      <point x="243" y="26" type="line"/>
      <point x="321" y="43"/>
      <point x="362" y="107"/>
      <point x="362" y="187" type="curve" smooth="yes"/>
      <point x="362" y="288"/>
      <point x="303" y="330"/>
      <point x="245" y="369" type="curve" smooth="yes"/>
      <point x="191" y="405"/>
      <point x="139" y="434"/>
      <point x="139" y="504" type="curve" smooth="yes"/>
      <point x="139" y="575"/>
      <point x="182" y="609"/>
      <point x="241" y="609" type="curve" smooth="yes"/>
      <point x="270" y="609"/>
      <point x="301" y="601"/>
      <point x="330" y="586" type="curve"/>
      <point x="346" y="636" type="line"/>
      <point x="320" y="649"/>
      <point x="284" y="659"/>
      <point x="248" y="661" type="curve"/>
      <point x="248" y="776" type="line"/>
      <point x="191" y="776" type="line"/>
      <point x="191" y="656" type="line"/>
      <point x="117" y="638"/>
      <point x="76" y="576"/>
      <point x="76" y="502" type="curve" smooth="yes"/>
      <point x="76" y="403"/>
      <point x="139" y="365"/>
      <point x="198" y="326" type="curve" smooth="yes"/>
      <point x="249" y="292"/>
      <point x="298" y="258"/>
      <point x="298" y="184" type="curve" smooth="yes"/>
      <point x="298" y="116"/>
      <point x="262" y="73"/>
      <point x="192" y="73" type="curve" smooth="yes"/>
      <point x="149" y="73"/>
      <point x="110" y="87"/>
      <point x="80" y="106" type="curve"/>
      <point x="64" y="56" type="line"/>
      <point x="94" y="37"/>
      <point x="139" y="24"/>
      <point x="187" y="21" type="curve"/>
    </contour>
  </outline>
</glyph>
<glyph name="ampersand" format="2">
  <advance width="495"/>
  <unicode hex="0026"/>
  <outline>
    <contour>
      <point x="223" y="-9" type="curve" smooth="yes"/>
      <point x="281" y="-9"/>
      <point x="338" y="25"/>
      <point x="381" y="84" type="curve"/>
      <point x="400" y="55"/>
      <point x="417" y="27"/>
      <point x="429" y="0" type="curve"/>
      <point x="490" y="0" type="line"/>
      <point x="471" y="43"/>
      <point x="444" y="88"/>
      <point x="413" y="133" type="curve"/>
      <point x="443" y="191"/>
      <point x="464" y="265"/>
      <point x="469" y="349" type="curve"/>
      <point x="417" y="356" type="line"/>
      <point x="412" y="288"/>
      <point x="398" y="228"/>
      <point x="379" y="180" type="curve"/>
      <point x="240" y="373" type="line"/>
      <point x="304" y="421"/>
      <point x="360" y="477"/>
      <point x="360" y="565" type="curve" smooth="yes"/>
      <point x="360" y="641"/>
      <point x="323" y="707"/>
      <point x="233" y="707" type="curve" smooth="yes"/>
      <point x="150" y="707"/>
      <point x="99" y="646"/>
      <point x="99" y="554" type="curve" smooth="yes"/>
      <point x="99" y="487"/>
      <point x="131" y="431"/>
      <point x="168" y="379" type="curve"/>
      <point x="100" y="329"/>
      <point x="49" y="272"/>
      <point x="49" y="169" type="curve" smooth="yes"/>
      <point x="49" y="86"/>
      <point x="99" y="-9"/>
    </contour>
    <contour>
      <point x="225" y="43" type="curve" smooth="yes"/>
      <point x="150" y="43"/>
      <point x="109" y="101"/>
      <point x="109" y="174" type="curve" smooth="yes"/>
      <point x="109" y="249"/>
      <point x="142" y="298"/>
      <point x="196" y="339" type="curve"/>
      <point x="352" y="127" type="line"/>
      <point x="318" y="74"/>
      <point x="273" y="43"/>
    </contour>
    <contour>
      <point x="211" y="413" type="curve"/>
      <point x="180" y="458"/>
      <point x="155" y="503"/>
      <point x="155" y="555" type="curve" smooth="yes"/>
      <point x="155" y="619"/>
      <point x="180" y="657"/>
      <point x="232" y="657" type="curve" smooth="yes"/>
      <point x="275" y="657"/>
      <point x="304" y="626"/>
      <point x="304" y="565" type="curve" smooth="yes"/>
      <point x="304" y="500"/>
      <point x="264" y="453"/>
    </contour>
  </outline>
</glyph>
<glyph name="comma" format="2">
  <advance width="211"/>
  <unicode hex="002C"/>
  <outline>
    <contour>
      <point x="85" y="-142" type="line"/>
      <point x="118" y="-82"/>
      <point x="141" y="-17"/>
      <point x="141" y="58" type="curve" smooth="yes"/>
      <point x="141" y="70"/>
      <point x="141" y="81"/>
      <point x="140" y="93" type="curve"/>
      <point x="76" y="93" type="line"/>
      <point x="77" y="78"/>
      <point x="78" y="62"/>
      <point x="78" y="49" type="curve" smooth="yes"/>
      <point x="78" y="-10"/>
      <point x="69" y="-71"/>
      <point x="41" y="-130" type="curve"/>
    </contour>
  </outline>
</glyph>
<glyph name="two" format="2">
  <advance width="428"/>
  <unicode hex="0032"/>
  <outline>
    <contour>
      <point x="66" y="0" type="curve"/>
      <point x="368" y="0" type="line"/>
      <point x="368" y="56" type="line"/>
      <point x="130" y="56" type="line"/>
      <point x="136" y="165"/>
      <point x="190" y="240"/>
      <point x="243" y="313" type="curve" smooth="yes"/>
      <point x="294" y="385"/>
      <point x="343" y="452"/>
      <point x="343" y="542" type="curve" smooth="yes"/>
      <point x="343" y="652"/>
      <point x="286" y="708"/>
      <point x="186" y="708" type="curve" smooth="yes"/>
      <point x="133" y="708"/>
      <point x="85" y="689"/>
      <point x="49" y="651" type="curve"/>
      <point x="79" y="610" type="line"/>
      <point x="107" y="636"/>
      <point x="142" y="653"/>
      <point x="182" y="653" type="curve" smooth="yes"/>
      <point x="247" y="653"/>
      <point x="281" y="615"/>
      <point x="281" y="540" type="curve" smooth="yes"/>
      <point x="281" y="456"/>
      <point x="235" y="398"/>
      <point x="186" y="332" type="curve" smooth="yes"/>
      <point x="128" y="254"/>
      <point x="66" y="167"/>
      <point x="66" y="19" type="curve" smooth="yes"/>
      <point x="66" y="13"/>
      <point x="66" y="6"/>
    </contour>
  </outline>
</glyph>
<glyph name="seven" format="2">
  <advance width="428"/>
  <unicode hex="0037"/>
  <outline>
    <contour>
      <point x="125" y="0" type="curve"/>
      <point x="187" y="0" type="line"/>
      <point x="198" y="229"/>
      <point x="286" y="514"/>
      <point x="366" y="647" type="curve"/>
      <point x="366" y="693" type="line"/>
      <point x="51" y="693" type="line"/>
      <point x="51" y="638" type="line"/>
      <point x="296" y="638" type="line"/>
      <point x="214" y="478"/>
      <point x="133" y="190"/>
    </contour>
  </outline>
</glyph>
<glyph name="less" format="2">
  <advance width="430"/>
  <unicode hex="003C"/>
  <outline>
    <contour>
      <point x="350" y="86" type="line"/>
      <point x="380" y="131" type="line"/>
      <point x="112" y="292" type="line"/>
      <point x="380" y="453" type="line"/>
      <point x="350" y="498" type="line"/>
      <point x="49" y="313" type="line"/>
      <point x="49" y="271" type="line"/>
    </contour>
  </outline>
</glyph>
<glyph name="question" format="2">
  <advance width="321"/>
  <unicode hex="003F"/>
  <outline>
    <contour>
      <point x="99" y="200" type="curve"/>
      <point x="154" y="200" type="line"/>
      <point x="152" y="212"/>
      <point x="152" y="225"/>
      <point x="152" y="238" type="curve" smooth="yes"/>
      <point x="152" y="386"/>
      <point x="297" y="415"/>
      <point x="297" y="560" type="curve" smooth="yes"/>
      <point x="297" y="639"/>
      <point x="252" y="707"/>
      <point x="144" y="707" type="curve" smooth="yes"/>
      <point x="96" y="707"/>
      <point x="57" y="692"/>
      <point x="21" y="668" type="curve"/>
      <point x="47" y="621" type="line"/>
      <point x="71" y="639"/>
      <point x="101" y="652"/>
      <point x="139" y="652" type="curve" smooth="yes"/>
      <point x="197" y="652"/>
      <point x="231" y="617"/>
      <point x="231" y="557" type="curve" smooth="yes"/>
      <point x="231" y="426"/>
      <point x="95" y="404"/>
      <point x="95" y="250" type="curve" smooth="yes"/>
      <point x="95" y="232"/>
      <point x="97" y="216"/>
    </contour>
    <contour>
      <point x="127" y="-9" type="curve" smooth="yes"/>
      <point x="152" y="-9"/>
      <point x="171" y="12"/>
      <point x="171" y="36" type="curve" smooth="yes"/>
      <point x="171" y="61"/>
      <point x="152" y="81"/>
      <point x="127" y="81" type="curve" smooth="yes"/>
      <point x="100" y="81"/>
      <point x="82" y="61"/>
      <point x="82" y="36" type="curve" smooth="yes"/>
      <point x="82" y="12"/>
      <point x="100" y="-9"/>
    </contour>
  </outline>
</glyph>
<glyph name="B" format="2">
  <advance width="508"/>
  <unicode hex="0042"/>
  <anchor x="256" y="0" name="bottom"/>
  <anchor x="256" y="347" name="center"/>
  <anchor x="256" y="693" name="top"/>
  <outline>
    <contour>
      <point x="230" y="-4" type="curve" smooth="yes"/>
      <point x="374" y="-4"/>
      <point x="459" y="53"/>
      <point x="459" y="186" type="curve" smooth="yes"/>
      <point x="459" y="277"/>
      <point x="408" y="337"/>
      <point x="332" y="363" type="curve"/>
      <point x="395" y="387"/>
      <point x="436" y="445"/>
      <point x="436" y="527" type="curve" smooth="yes"/>
      <point x="436" y="650"/>
      <point x="348" y="699"/>
      <point x="219" y="699" type="curve" smooth="yes"/>
      <point x="174" y="699"/>
      <point x="127" y="693"/>
      <point x="86" y="683" type="curve"/>
      <point x="86" y="11" type="line"/>
      <point x="133" y="2"/>
      <point x="184" y="-4"/>
    </contour>
    <contour>
      <point x="235" y="50" type="curve" smooth="yes"/>
      <point x="207" y="50"/>
      <point x="175" y="54"/>
      <point x="149" y="58" type="curve"/>
      <point x="149" y="335" type="line"/>
      <point x="234" y="335" type="line" smooth="yes"/>
      <point x="337" y="335"/>
      <point x="394" y="277"/>
      <point x="394" y="186" type="curve" smooth="yes"/>
      <point x="394" y="87"/>
      <point x="335" y="50"/>
    </contour>
    <contour>
      <point x="149" y="387" type="line"/>
      <point x="149" y="638" type="line"/>
      <point x="170" y="642"/>
      <point x="196" y="644"/>
      <point x="222" y="644" type="curve" smooth="yes"/>
      <point x="316" y="644"/>
      <point x="371" y="614"/>
      <point x="371" y="517" type="curve" smooth="yes"/>
      <point x="371" y="433"/>
      <point x="322" y="387"/>
      <point x="229" y="387" type="curve" smooth="yes"/>
    </contour>
  </outline>
</glyph>
<glyph name="D" format="2">
  <advance width="565"/>
  <unicode hex="0044"/>
  <anchor x="282" y="0" name="bottom"/>
  <anchor x="282" y="347" name="center"/>
  <anchor x="282" y="693" name="top"/>
  <outline>
    <contour>
      <point x="228" y="-6" type="curve" smooth="yes"/>
      <point x="405" y="-6"/>
      <point x="507" y="101"/>
      <point x="507" y="347" type="curve" smooth="yes"/>
      <point x="507" y="593"/>
      <point x="405" y="699"/>
      <point x="227" y="699" type="curve" smooth="yes"/>
      <point x="183" y="699"/>
      <point x="135" y="694"/>
      <point x="85" y="684" type="curve"/>
      <point x="85" y="9" type="line"/>
      <point x="136" y="-1"/>
      <point x="184" y="-6"/>
    </contour>
    <contour>
      <point x="227" y="51" type="curve" smooth="yes"/>
      <point x="199" y="51"/>
      <point x="174" y="52"/>
      <point x="149" y="56" type="curve"/>
      <point x="149" y="637" type="line"/>
      <point x="175" y="641"/>
      <point x="200" y="642"/>
      <point x="228" y="642" type="curve" smooth="yes"/>
      <point x="377" y="642"/>
      <point x="440" y="556"/>
      <point x="440" y="347" type="curve" smooth="yes"/>
      <point x="440" y="137"/>
      <point x="377" y="51"/>
    </contour>
  </outline>
</glyph>
<glyph name="H" format="2">
  <advance width="563"/>
  <unicode hex="0048"/>
  <anchor x="282" y="0" name="bottom"/>
  <anchor x="282" y="347" name="center"/>
  <anchor x="282" y="693" name="top"/>
  <anchor x="19" y="693" name="topleft"/>
  <outline>
    <contour>
      <point x="86" y="0" type="line"/>
      <point x="149" y="0" type="line"/>
      <point x="149" y="334" type="line"/>
      <point x="414" y="334" type="line"/>
      <point x="414" y="0" type="line"/>
      <point x="477" y="0" type="line"/>
      <point x="477" y="693" type="line"/>
      <point x="414" y="693" type="line"/>
      <point x="414" y="389" type="line"/>
      <point x="149" y="389" type="line"/>
      <point x="149" y="693" type="line"/>
      <point x="86" y="693" type="line"/>
    </contour>
  </outline>
</glyph>
<glyph name="I" format="2">
  <advance width="235"/>
  <unicode hex="0049"/>
  <anchor x="119" y="0" name="bottom"/>
  <anchor x="215" y="10" name="ogonek"/>
  <anchor x="119" y="693" name="top"/>
  <anchor x="19" y="693" name="topleft"/>
  <outline>
    <contour>
      <point x="86" y="0" type="line"/>
      <point x="149" y="0" type="line"/>
      <point x="149" y="693" type="line"/>
      <point x="86" y="693" type="line"/>
    </contour>
  </outline>
</glyph>
<glyph name="J" format="2">
  <advance width="375"/>
  <unicode hex="004A"/>
  <anchor x="188" y="0" name="bottom"/>
  <anchor x="188" y="693" name="top"/>
  <outline>
    <contour>
      <point x="129" y="-11" type="curve" smooth="yes"/>
      <point x="235" y="-11"/>
      <point x="293" y="45"/>
      <point x="293" y="182" type="curve" smooth="yes"/>
      <point x="293" y="693" type="line"/>
      <point x="230" y="693" type="line"/>
      <point x="230" y="181" type="line" smooth="yes"/>
      <point x="230" y="78"/>
      <point x="193" y="45"/>
      <point x="127" y="45" type="curve" smooth="yes"/>
      <point x="90" y="45"/>
      <point x="51" y="58"/>
      <point x="24" y="75" type="curve"/>
      <point x="5" y="24" type="line"/>
      <point x="42" y="1"/>
      <point x="86" y="-11"/>
    </contour>
  </outline>
</glyph>
<glyph name="M" format="2">
  <advance width="716"/>
  <unicode hex="004D"/>
  <anchor x="358" y="0" name="bottom"/>
  <anchor x="358" y="693" name="top"/>
  <outline>
    <contour>
      <point x="73" y="0" type="curve"/>
      <point x="134" y="0" type="line"/>
      <point x="138" y="196"/>
      <point x="144" y="420"/>
      <point x="155" y="596" type="curve"/>
      <point x="212" y="460"/>
      <point x="275" y="287"/>
      <point x="329" y="99" type="curve"/>
      <point x="388" y="99" type="line"/>
      <point x="425" y="233"/>
      <point x="503" y="462"/>
      <point x="560" y="601" type="curve"/>
      <point x="571" y="425"/>
      <point x="578" y="197"/>
      <point x="582" y="0" type="curve"/>
      <point x="643" y="0" type="line"/>
      <point x="636" y="241"/>
      <point x="627" y="487"/>
      <point x="609" y="693" type="curve"/>
      <point x="544" y="693" type="line"/>
      <point x="484" y="552"/>
      <point x="410" y="351"/>
      <point x="359" y="178" type="curve"/>
      <point x="309" y="351"/>
      <point x="232" y="552"/>
      <point x="172" y="693" type="curve"/>
      <point x="107" y="693" type="line"/>
      <point x="89" y="487"/>
      <point x="80" y="241"/>
    </contour>
  </outline>
</glyph>
<glyph name="N" format="2">
  <advance width="569"/>
  <unicode hex="004E"/>
  <anchor x="286" y="0" name="bottom"/>
  <anchor x="286" y="693" name="top"/>
  <outline>
    <contour>
      <point x="86" y="0" type="line"/>
      <point x="145" y="0" type="line"/>
      <point x="145" y="584" type="line"/>
      <point x="241" y="418"/>
      <point x="348" y="195"/>
      <point x="430" y="0" type="curve"/>
      <point x="484" y="0" type="line"/>
      <point x="484" y="693" type="line"/>
      <point x="425" y="693" type="line"/>
      <point x="425" y="138" type="line"/>
      <point x="350" y="314"/>
      <point x="247" y="520"/>
      <point x="142" y="693" type="curve"/>
      <point x="86" y="693" type="line"/>
    </contour>
  </outline>
</glyph>
<glyph name="P" format="2">
  <advance width="469"/>
  <unicode hex="0050"/>
  <anchor x="235" y="0" name="bottom"/>
  <anchor x="235" y="693" name="top"/>
  <outline>
    <contour>
      <point x="86" y="0" type="line"/>
      <point x="149" y="0" type="line"/>
      <point x="149" y="267" type="line"/>
      <point x="203" y="267" type="line" smooth="yes"/>
      <point x="344" y="267"/>
      <point x="431" y="335"/>
      <point x="431" y="482" type="curve" smooth="yes"/>
      <point x="431" y="629"/>
      <point x="346" y="700"/>
      <point x="208" y="700" type="curve" smooth="yes"/>
      <point x="169" y="700"/>
      <point x="127" y="694"/>
      <point x="86" y="685" type="curve"/>
    </contour>
    <contour>
      <point x="149" y="324" type="line"/>
      <point x="149" y="638" type="line"/>
      <point x="167" y="642"/>
      <point x="188" y="643"/>
      <point x="207" y="643" type="curve" smooth="yes"/>
      <point x="307" y="643"/>
      <point x="365" y="596"/>
      <point x="365" y="482" type="curve" smooth="yes"/>
      <point x="365" y="371"/>
      <point x="307" y="324"/>
      <point x="201" y="324" type="curve" smooth="yes"/>
    </contour>
  </outline>
</glyph>
<glyph name="Q" format="2">
  <advance width="591"/>
  <unicode hex="0051"/>
  <anchor x="297" y="0" name="bottom"/>
  <anchor x="297" y="693" name="top"/>
  <outline>
    <contour>
      <point x="485" y="-171" type="curve"/>
      <point x="501" y="-119" type="line"/>
      <point x="407" y="-101"/>
      <point x="347" y="-71"/>
      <point x="341" y="-8" type="curve"/>
      <point x="468" y="17"/>
      <point x="532" y="148"/>
      <point x="532" y="345" type="curve" smooth="yes"/>
      <point x="532" y="567"/>
      <point x="453" y="706"/>
      <point x="296" y="706" type="curve" smooth="yes"/>
      <point x="139" y="706"/>
      <point x="59" y="567"/>
      <point x="59" y="345" type="curve" smooth="yes"/>
      <point x="59" y="132"/>
      <point x="134" y="-3"/>
      <point x="280" y="-11" type="curve"/>
      <point x="298" y="-117"/>
      <point x="378" y="-145"/>
    </contour>
    <contour>
      <point x="296" y="44" type="curve" smooth="yes"/>
      <point x="180" y="44"/>
      <point x="126" y="159"/>
      <point x="126" y="345" type="curve" smooth="yes"/>
      <point x="126" y="532"/>
      <point x="180" y="650"/>
      <point x="296" y="650" type="curve" smooth="yes"/>
      <point x="412" y="650"/>
      <point x="465" y="532"/>
      <point x="465" y="345" type="curve" smooth="yes"/>
      <point x="465" y="159"/>
      <point x="412" y="44"/>
    </contour>
  </outline>
</glyph>
<glyph name="R" format="2">
  <advance width="496"/>
  <unicode hex="0052"/>
  <anchor x="247" y="0" name="bottom"/>
  <anchor x="247" y="693" name="top"/>
  <outline>
    <contour>
      <point x="86" y="0" type="line"/>
      <point x="148" y="0" type="line"/>
      <point x="148" y="277" type="line"/>
      <point x="196" y="277" type="line" smooth="yes"/>
      <point x="217" y="277"/>
      <point x="239" y="279"/>
      <point x="260" y="282" type="curve"/>
      <point x="307" y="203"/>
      <point x="362" y="90"/>
      <point x="397" y="0" type="curve"/>
      <point x="464" y="0" type="line"/>
      <point x="417" y="118"/>
      <point x="357" y="234"/>
      <point x="319" y="300" type="curve"/>
      <point x="386" y="328"/>
      <point x="427" y="391"/>
      <point x="427" y="486" type="curve" smooth="yes"/>
      <point x="427" y="630"/>
      <point x="344" y="700"/>
      <point x="209" y="700" type="curve" smooth="yes"/>
      <point x="167" y="700"/>
      <point x="126" y="694"/>
      <point x="86" y="685" type="curve"/>
    </contour>
    <contour>
      <point x="148" y="331" type="line"/>
      <point x="148" y="639" type="line"/>
      <point x="166" y="642"/>
      <point x="189" y="643"/>
      <point x="209" y="643" type="curve" smooth="yes"/>
      <point x="305" y="643"/>
      <point x="361" y="598"/>
      <point x="361" y="486" type="curve" smooth="yes"/>
      <point x="361" y="379"/>
      <point x="306" y="331"/>
      <point x="203" y="331" type="curve" smooth="yes"/>
    </contour>
  </outline>
</glyph>
<glyph name="f" format="2">
  <advance width="285"/>
  <unicode hex="0066"/>
  <anchor x="143" y="0" name="bottom"/>
  <anchor x="143" y="776" name="top"/>
  <outline>
    <contour>
      <point x="80" y="0" type="line"/>
      <point x="140" y="0" type="line"/>
      <point x="140" y="468" type="line"/>
      <point x="280" y="468" type="line"/>
      <point x="280" y="521" type="line"/>
      <point x="140" y="521" type="line"/>
      <point x="140" y="604" type="line" smooth="yes"/>
      <point x="140" y="680"/>
      <point x="162" y="724"/>
      <point x="226" y="724" type="curve" smooth="yes"/>
      <point x="247" y="724"/>
      <point x="269" y="720"/>
      <point x="286" y="712" type="curve"/>
      <point x="298" y="760" type="line"/>
      <point x="281" y="768"/>
      <point x="251" y="776"/>
      <point x="220" y="776" type="curve" smooth="yes"/>
      <point x="127" y="776"/>
      <point x="80" y="715"/>
      <point x="80" y="604" type="curve" smooth="yes"/>
    </contour>
  </outline>
</glyph>
<glyph name="j" format="2">
  <advance width="220"/>
  <unicode hex="006A"/>
  <outline>
    <contour>
      <point x="17" y="-188" type="curve" smooth="yes"/>
      <point x="101" y="-188"/>
      <point x="140" y="-125"/>
      <point x="140" y="-35" type="curve" smooth="yes"/>
      <point x="140" y="522" type="line"/>
      <point x="80" y="522" type="line"/>
      <point x="80" y="-27" type="line" smooth="yes"/>
      <point x="80" y="-96"/>
      <point x="60" y="-133"/>
      <point x="9" y="-133" type="curve" smooth="yes"/>
      <point x="-2" y="-133"/>
      <point x="-17" y="-131"/>
      <point x="-30" y="-128" type="curve"/>
      <point x="-37" y="-179" type="line"/>
      <point x="-20" y="-185"/>
      <point x="-3" y="-188"/>
    </contour>
    <contour>
      <point x="110" y="628" type="curve" smooth="yes"/>
      <point x="135" y="628"/>
      <point x="153" y="646"/>
      <point x="153" y="672" type="curve" smooth="yes"/>
      <point x="153" y="697"/>
      <point x="135" y="716"/>
      <point x="110" y="716" type="curve" smooth="yes"/>
      <point x="86" y="716"/>
      <point x="67" y="697"/>
      <point x="67" y="672" type="curve" smooth="yes"/>
      <point x="67" y="646"/>
      <point x="86" y="628"/>
    </contour>
  </outline>
</glyph>
<glyph name="k" format="2">
  <advance width="392"/>
  <unicode hex="006B"/>
  <anchor x="200" y="0" name="bottom"/>
  <anchor x="200" y="776" name="top"/>
  <outline>
    <contour>
      <point x="80" y="0" type="line"/>
      <point x="140" y="0" type="line"/>
      <point x="140" y="261" type="line"/>
      <point x="205" y="199"/>
      <point x="276" y="92"/>
      <point x="321" y="0" type="curve"/>
      <point x="387" y="0" type="line"/>
      <point x="345" y="92"/>
      <point x="271" y="208"/>
      <point x="198" y="280" type="curve"/>
      <point x="256" y="349"/>
      <point x="309" y="425"/>
      <point x="367" y="521" type="curve"/>
      <point x="302" y="521" type="line"/>
      <point x="260" y="451"/>
      <point x="198" y="362"/>
      <point x="140" y="292" type="curve"/>
      <point x="140" y="776" type="line"/>
      <point x="80" y="764" type="line"/>
    </contour>
  </outline>
</glyph>
<glyph name="r" format="2">
  <advance width="308"/>
  <unicode hex="0072"/>
  <anchor x="156" y="0" name="bottom"/>
  <anchor x="156" y="517" name="top"/>
  <outline>
    <contour>
      <point x="80" y="0" type="line"/>
      <point x="140" y="0" type="line"/>
      <point x="140" y="462" type="line"/>
      <point x="164" y="473"/>
      <point x="191" y="478"/>
      <point x="220" y="478" type="curve" smooth="yes"/>
      <point x="246" y="478"/>
      <point x="269" y="475"/>
      <point x="290" y="467" type="curve"/>
      <point x="300" y="519" type="line"/>
      <point x="277" y="528"/>
      <point x="248" y="531"/>
      <point x="217" y="531" type="curve" smooth="yes"/>
      <point x="167" y="531"/>
      <point x="120" y="518"/>
      <point x="80" y="499" type="curve"/>
    </contour>
  </outline>
</glyph>
<glyph name="y" format="2">
  <advance width="380"/>
  <unicode hex="0079"/>
  <anchor x="188" y="0" name="bottom"/>
  <anchor x="188" y="517" name="top"/>
  <outline>
    <contour>
      <point x="58" y="-188" type="curve" smooth="yes"/>
      <point x="129" y="-188"/>
      <point x="172" y="-132"/>
      <point x="225" y="11" type="curve" smooth="yes"/>
      <point x="275" y="147"/>
      <point x="328" y="331"/>
      <point x="362" y="521" type="curve"/>
      <point x="304" y="521" type="line"/>
      <point x="276" y="365"/>
      <point x="236" y="204"/>
      <point x="191" y="71" type="curve"/>
      <point x="151" y="182"/>
      <point x="103" y="378"/>
      <point x="82" y="521" type="curve"/>
      <point x="18" y="521" type="line"/>
      <point x="54" y="330"/>
      <point x="102" y="144"/>
      <point x="162" y="-8" type="curve"/>
      <point x="120" y="-104"/>
      <point x="92" y="-136"/>
      <point x="55" y="-136" type="curve" smooth="yes"/>
      <point x="43" y="-136"/>
      <point x="29" y="-133"/>
      <point x="14" y="-127" type="curve"/>
      <point x="2" y="-177" type="line"/>
      <point x="17" y="-183"/>
      <point x="37" y="-188"/>
    </contour>
  </outline>
</glyph>
<glyph name="asciitilde" format="2">
  <advance width="430"/>
  <unicode hex="007E"/>
  <outline>
    <contour>
      <point x="293" y="230" type="curve" smooth="yes"/>
      <point x="353" y="230"/>
      <point x="387" y="279"/>
      <point x="397" y="351" type="curve"/>
      <point x="352" y="364" type="line"/>
      <point x="343" y="306"/>
      <point x="318" y="287"/>
      <point x="293" y="287" type="curve" smooth="yes"/>
      <point x="246" y="287"/>
      <point x="207" y="367"/>
      <point x="136" y="367" type="curve" smooth="yes"/>
      <point x="77" y="367"/>
      <point x="43" y="318"/>
      <point x="32" y="246" type="curve"/>
      <point x="77" y="233" type="line"/>
      <point x="87" y="292"/>
      <point x="113" y="310"/>
      <point x="136" y="310" type="curve" smooth="yes"/>
      <point x="183" y="310"/>
      <point x="223" y="230"/>
    </contour>
  </outline>
</glyph>
<glyph name="sterling" format="2">
  <advance width="430"/>
  <unicode hex="00A3"/>
  <outline>
    <contour>
      <point x="88" y="0" type="curve"/>
      <point x="389" y="0" type="line"/>
      <point x="389" y="55" type="line"/>
      <point x="156" y="55" type="line"/>
      <point x="169" y="131"/>
      <point x="175" y="240"/>
      <point x="175" y="299" type="curve" smooth="yes"/>
      <point x="175" y="312" type="line"/>
      <point x="327" y="312" type="line"/>
      <point x="327" y="364" type="line"/>
      <point x="175" y="364" type="line"/>
      <point x="175" y="529" type="line" smooth="yes"/>
      <point x="175" y="609"/>
      <point x="219" y="652"/>
      <point x="285" y="652" type="curve" smooth="yes"/>
      <point x="310" y="652"/>
      <point x="343" y="640"/>
      <point x="361" y="629" type="curve"/>
      <point x="375" y="679" type="line"/>
      <point x="351" y="694"/>
      <point x="312" y="706"/>
      <point x="272" y="706" type="curve" smooth="yes"/>
      <point x="188" y="706"/>
      <point x="113" y="642"/>
      <point x="113" y="530" type="curve" smooth="yes"/>
      <point x="113" y="364" type="line"/>
      <point x="41" y="364" type="line"/>
      <point x="41" y="312" type="line"/>
      <point x="113" y="312" type="line"/>
      <point x="113" y="295" type="line" smooth="yes"/>
      <point x="113" y="184"/>
      <point x="104" y="91"/>
    </contour>
  </outline>
</glyph>
<glyph name="brokenbar" format="2">
  <advance width="255"/>
  <unicode hex="00A6"/>
  <outline>
    <contour>
      <point x="97" y="406" type="line"/>
      <point x="157" y="406" type="line"/>
      <point x="157" y="783" type="line"/>
      <point x="97" y="783" type="line"/>
    </contour>
    <contour>
      <point x="97" y="-185" type="line"/>
      <point x="157" y="-185" type="line"/>
      <point x="157" y="191" type="line"/>
      <point x="97" y="191" type="line"/>
    </contour>
  </outline>
</glyph>
<glyph name="acute" format="2">
  <advance width="314"/>
  <unicode hex="00B4"/>
  <outline>
    <contour>
      <point x="139" y="594" type="line"/>
      <point x="277" y="745" type="line"/>
      <point x="234" y="778" type="line"/>
      <point x="109" y="615" type="line"/>
    </contour>
  </outline>
</glyph>
<glyph name="ordmasculine" format="2">
  <advance width="355"/>
  <unicode hex="00BA"/>
  <outline>
    <contour>
      <point x="178" y="333" type="curve" smooth="yes"/>
      <point x="256" y="333"/>
      <point x="312" y="398"/>
      <point x="312" y="520" type="curve" smooth="yes"/>
      <point x="312" y="644"/>
      <point x="255" y="707"/>
      <point x="178" y="707" type="curve" smooth="yes"/>
      <point x="100" y="707"/>
      <point x="43" y="644"/>
      <point x="43" y="520" type="curve" smooth="yes"/>
      <point x="43" y="397"/>
      <point x="99" y="333"/>
    </contour>
    <contour>
      <point x="178" y="379" type="curve" smooth="yes"/>
      <point x="125" y="379"/>
      <point x="92" y="430"/>
      <point x="92" y="520" type="curve" smooth="yes"/>
      <point x="92" y="612"/>
      <point x="127" y="661"/>
      <point x="178" y="661" type="curve" smooth="yes"/>
      <point x="228" y="661"/>
      <point x="264" y="613"/>
      <point x="264" y="520" type="curve" smooth="yes"/>
      <point x="264" y="430"/>
      <point x="230" y="379"/>
    </contour>
  </outline>
</glyph>
<glyph name="Eth" format="2">
  <advance width="558"/>
  <unicode hex="00D0"/>
  <outline>
    <contour>
      <point x="214" y="-6" type="curve" smooth="yes"/>
      <point x="397" y="-6"/>
      <point x="500" y="105"/>
      <point x="500" y="347" type="curve" smooth="yes"/>
      <point x="500" y="589"/>
      <point x="398" y="700"/>
      <point x="205" y="700" type="curve" smooth="yes"/>
      <point x="162" y="700"/>
      <point x="116" y="693"/>
      <point x="77" y="684" type="curve"/>
      <point x="77" y="371" type="line"/>
      <point x="20" y="371" type="line"/>
      <point x="20" y="322" type="line"/>
      <point x="77" y="322" type="line"/>
      <point x="77" y="11" type="line"/>
      <point x="122" y="1"/>
      <point x="169" y="-6"/>
    </contour>
    <contour>
      <point x="209" y="54" type="curve" smooth="yes"/>
      <point x="211" y="54"/>
      <point x="180" y="53"/>
      <point x="142" y="59" type="curve"/>
      <point x="142" y="322" type="line"/>
      <point x="261" y="322" type="line"/>
      <point x="261" y="371" type="line"/>
      <point x="142" y="371" type="line"/>
      <point x="142" y="634" type="line"/>
      <point x="180" y="640"/>
      <point x="218" y="640"/>
      <point x="203" y="640" type="curve" smooth="yes"/>
      <point x="356" y="640"/>
      <point x="431" y="557"/>
      <point x="431" y="347" type="curve" smooth="yes"/>
      <point x="431" y="141"/>
      <point x="357" y="54"/>
    </contour>
  </outline>
</glyph>
<glyph name="germandbls" format="2">
  <advance width="462"/>
  <unicode hex="00DF"/>
  <anchor x="232" y="0" name="bottom"/>
  <anchor x="232" y="776" name="top"/>
  <outline>
    <contour>
      <point x="291" y="-12" type="curve" smooth="yes"/>
      <point x="387" y="-12"/>
      <point x="433" y="73"/>
      <point x="433" y="164" type="curve" smooth="yes"/>
      <point x="433" y="203"/>
      <point x="439" y="254"/>
      <point x="388" y="295" type="curve" smooth="yes"/>
      <point x="291" y="372"/>
      <point x="289" y="392"/>
      <point x="289" y="412" type="curve" smooth="yes"/>
      <point x="289" y="430"/>
      <point x="308" y="454"/>
      <point x="328" y="485" type="curve" smooth="yes"/>
      <point x="380" y="548"/>
      <point x="383" y="586"/>
      <point x="383" y="633" type="curve" smooth="yes"/>
      <point x="383" y="717"/>
      <point x="322" y="776"/>
      <point x="239" y="776" type="curve" smooth="yes"/>
      <point x="136" y="776"/>
      <point x="81" y="718"/>
      <point x="81" y="587" type="curve" smooth="yes"/>
      <point x="81" y="0" type="line"/>
      <point x="142" y="0" type="line"/>
      <point x="142" y="588" type="line" smooth="yes"/>
      <point x="142" y="687"/>
      <point x="182" y="721"/>
      <point x="243" y="721" type="curve" smooth="yes"/>
      <point x="294" y="721"/>
      <point x="322" y="678"/>
      <point x="322" y="623" type="curve" smooth="yes"/>
      <point x="322" y="578"/>
      <point x="308" y="548"/>
      <point x="275" y="508" type="curve" smooth="yes"/>
      <point x="241" y="463"/>
      <point x="233" y="440"/>
      <point x="233" y="405" type="curve" smooth="yes"/>
      <point x="233" y="368"/>
      <point x="261" y="327"/>
      <point x="310" y="285" type="curve" smooth="yes"/>
      <point x="353" y="249"/>
      <point x="371" y="223"/>
      <point x="371" y="166" type="curve" smooth="yes"/>
      <point x="371" y="104"/>
      <point x="348" y="48"/>
      <point x="271" y="48" type="curve" smooth="yes"/>
      <point x="278" y="48"/>
      <point x="259" y="42"/>
      <point x="224" y="54" type="curve"/>
      <point x="213" y="1" type="line"/>
      <point x="256" y="-15"/>
      <point x="277" y="-12"/>
    </contour>
  </outline>
</glyph>
<glyph name="ccedilla" format="2">
  <advance width="345"/>
  <unicode hex="00E7"/>
  <outline>
    <contour>
      <point x="175" y="-188" type="curve" smooth="yes"/>
      <point x="213" y="-188"/>
      <point x="272" y="-170"/>
      <point x="272" y="-110" type="curve" smooth="yes"/>
      <point x="272" y="-83"/>
      <point x="260" y="-55"/>
      <point x="219" y="-40" type="curve"/>
      <point x="223" y="-30"/>
      <point x="227" y="-19"/>
      <point x="232" y="-9" type="curve"/>
      <point x="269" y="-8"/>
      <point x="303" y="4"/>
      <point x="327" y="22" type="curve"/>
      <point x="313" y="70" type="line"/>
      <point x="283" y="51"/>
      <point x="249" y="45"/>
      <point x="233" y="45" type="curve" smooth="yes"/>
      <point x="154" y="45"/>
      <point x="115" y="122"/>
      <point x="115" y="259" type="curve" smooth="yes"/>
      <point x="115" y="409"/>
      <point x="155" y="480"/>
      <point x="235" y="480" type="curve" smooth="yes"/>
      <point x="254" y="480"/>
      <point x="286" y="474"/>
      <point x="306" y="459" type="curve"/>
      <point x="323" y="510" type="line"/>
      <point x="293" y="525"/>
      <point x="276" y="534"/>
      <point x="236" y="534" type="curve" smooth="yes"/>
      <point x="112" y="534"/>
      <point x="52" y="437"/>
      <point x="52" y="259" type="curve" smooth="yes"/>
      <point x="52" y="118"/>
      <point x="90" y="19"/>
      <point x="184" y="-3" type="curve"/>
      <point x="176" y="-22"/>
      <point x="168" y="-41"/>
      <point x="160" y="-62" type="curve"/>
      <point x="209" y="-70"/>
      <point x="220" y="-84"/>
      <point x="220" y="-104" type="curve" smooth="yes"/>
      <point x="220" y="-132"/>
      <point x="195" y="-141"/>
      <point x="161" y="-141" type="curve" smooth="yes"/>
      <point x="153" y="-141"/>
      <point x="136" y="-137"/>
      <point x="123" y="-135" type="curve"/>
      <point x="115" y="-178" type="line"/>
      <point x="142" y="-187"/>
      <point x="159" y="-188"/>
    </contour>
  </outline>
</glyph>
<glyph name="thorn" format="2">
  <advance width="455"/>
  <unicode hex="00FE"/>
  <anchor x="228" y="0" name="bottom"/>
  <anchor x="228" y="517" name="top"/>
  <outline>
    <contour>
      <point x="80" y="-183" type="line"/>
      <point x="141" y="-183" type="line"/>
      <point x="141" y="15" type="line"/>
      <point x="175" y="-7"/>
      <point x="203" y="-9"/>
      <point x="225" y="-9" type="curve" smooth="yes"/>
      <point x="347" y="-9"/>
      <point x="403" y="82"/>
      <point x="403" y="264" type="curve" smooth="yes"/>
      <point x="403" y="429"/>
      <point x="356" y="537"/>
      <point x="227" y="537" type="curve" smooth="yes"/>
      <point x="191" y="537"/>
      <point x="153" y="521"/>
      <point x="141" y="507" type="curve"/>
      <point x="141" y="776" type="line"/>
      <point x="80" y="764" type="line"/>
    </contour>
    <contour>
      <point x="216" y="45" type="curve" smooth="yes"/>
      <point x="198" y="45"/>
      <point x="169" y="46"/>
      <point x="141" y="66" type="curve"/>
      <point x="141" y="451" type="line"/>
      <point x="173" y="472"/>
      <point x="198" y="482"/>
      <point x="222" y="482" type="curve" smooth="yes"/>
      <point x="309" y="482"/>
      <point x="340" y="409"/>
      <point x="340" y="265" type="curve" smooth="yes"/>
      <point x="340" y="89"/>
      <point x="280" y="45"/>
    </contour>
  </outline>
</glyph>
<glyph name="Aogonek" format="2">
  <advance width="484"/>
  <unicode hex="0104"/>
  <outline>
    <contour>
      <point x="410" y="-187" type="curve" smooth="yes"/>
      <point x="427" y="-187"/>
      <point x="442" y="-185"/>
      <point x="463" y="-177" type="curve"/>
      <point x="460" y="-129" type="line"/>
      <point x="446" y="-133"/>
      <point x="437" y="-135"/>
      <point x="428" y="-135" type="curve" smooth="yes"/>
      <point x="396" y="-135"/>
      <point x="378" y="-121"/>
      <point x="378" y="-90" type="curve" smooth="yes"/>
      <point x="378" y="-67"/>
      <point x="389" y="-44"/>
      <point x="461" y="-1" type="curve"/>
      <point x="398" y="304"/>
      <point x="344" y="478"/>
      <point x="275" y="693" type="curve"/>
      <point x="206" y="693" type="line"/>
      <point x="139" y="476"/>
      <point x="69" y="253"/>
      <point x="23" y="0" type="curve"/>
      <point x="83" y="0" type="line"/>
      <point x="94" y="60"/>
      <point x="107" y="124"/>
      <point x="122" y="188" type="curve"/>
      <point x="359" y="188" type="line"/>
      <point x="374" y="124"/>
      <point x="388" y="61"/>
      <point x="399" y="0" type="curve"/>
      <point x="399" y="0" type="line"/>
      <point x="337" y="-44"/>
      <point x="326" y="-72"/>
      <point x="326" y="-106" type="curve" smooth="yes"/>
      <point x="326" y="-157"/>
      <point x="371" y="-187"/>
    </contour>
    <contour>
      <point x="133" y="244" type="line"/>
      <point x="170" y="383"/>
      <point x="191" y="463"/>
      <point x="240" y="618" type="curve"/>
      <point x="291" y="463"/>
      <point x="311" y="386"/>
      <point x="348" y="244" type="curve"/>
    </contour>
  </outline>
</glyph>
<glyph name="Eng" format="2">
  <advance width="573"/>
  <unicode hex="014A"/>
  <anchor x="287" y="0" name="bottom"/>
  <anchor x="287" y="693" name="top"/>
  <outline>
    <contour>
      <point x="371" y="-190" type="curve" smooth="yes"/>
      <point x="443" y="-190"/>
      <point x="486" y="-138"/>
      <point x="486" y="-54" type="curve"/>
      <point x="486" y="693" type="line"/>
      <point x="426" y="693" type="line"/>
      <point x="426" y="153" type="line"/>
      <point x="365" y="309"/>
      <point x="254" y="515"/>
      <point x="143" y="693" type="curve"/>
      <point x="87" y="693" type="line"/>
      <point x="87" y="0" type="line"/>
      <point x="147" y="0" type="line"/>
      <point x="147" y="570" type="line"/>
      <point x="242" y="414"/>
      <point x="359" y="194"/>
      <point x="426" y="21" type="curve"/>
      <point x="426" y="-43" type="line" smooth="yes"/>
      <point x="426" y="-116"/>
      <point x="407" y="-132"/>
      <point x="369" y="-132" type="curve" smooth="yes"/>
      <point x="361" y="-132"/>
      <point x="344" y="-130"/>
      <point x="331" y="-127" type="curve"/>
      <point x="322" y="-181" type="line"/>
      <point x="338" y="-188"/>
      <point x="359" y="-190"/>
    </contour>
  </outline>
</glyph>
<glyph name="uni0163" format="2">
  <advance width="307"/>
  <unicode hex="0163"/>
  <outline>
    <contour>
      <point x="153" y="-188" type="curve" smooth="yes"/>
      <point x="194" y="-188"/>
      <point x="251" y="-167"/>
      <point x="251" y="-110" type="curve" smooth="yes"/>
      <point x="251" y="-82"/>
      <point x="239" y="-55"/>
      <point x="197" y="-40" type="curve"/>
      <point x="201" y="-29"/>
      <point x="206" y="-18"/>
      <point x="211" y="-7" type="curve"/>
      <point x="233" y="-7"/>
      <point x="255" y="-4"/>
      <point x="288" y="13" type="curve"/>
      <point x="277" y="63" type="line"/>
      <point x="260" y="53"/>
      <point x="232" y="47"/>
      <point x="221" y="47" type="curve" smooth="yes"/>
      <point x="167" y="47"/>
      <point x="137" y="80"/>
      <point x="137" y="150" type="curve" smooth="yes"/>
      <point x="137" y="468" type="line"/>
      <point x="271" y="468" type="line"/>
      <point x="271" y="522" type="line"/>
      <point x="137" y="522" type="line"/>
      <point x="137" y="681" type="line"/>
      <point x="76" y="669" type="line"/>
      <point x="76" y="155" type="line" smooth="yes"/>
      <point x="76" y="93"/>
      <point x="82" y="17"/>
      <point x="164" y="-1" type="curve"/>
      <point x="151" y="-28"/>
      <point x="143" y="-54"/>
      <point x="138" y="-62" type="curve"/>
      <point x="188" y="-70"/>
      <point x="199" y="-85"/>
      <point x="199" y="-104" type="curve" smooth="yes"/>
      <point x="199" y="-132"/>
      <point x="173" y="-141"/>
      <point x="139" y="-141" type="curve" smooth="yes"/>
      <point x="132" y="-141"/>
      <point x="115" y="-137"/>
      <point x="102" y="-135" type="curve"/>
      <point x="94" y="-178" type="line"/>
      <point x="121" y="-186"/>
      <point x="137" y="-188"/>
    </contour>
  </outline>
</glyph>
<glyph name="uni018A" format="2">
  <advance width="614"/>
  <unicode hex="018A"/>
  <anchor x="307" y="0" name="bottom"/>
  <anchor x="307" y="693" name="top"/>
  <outline>
    <contour>
      <point x="270" y="-6" type="curve" smooth="yes"/>
      <point x="462" y="-6"/>
      <point x="556" y="105"/>
      <point x="556" y="347" type="curve" smooth="yes"/>
      <point x="556" y="592"/>
      <point x="460" y="700"/>
      <point x="258" y="700" type="curve" smooth="yes"/>
      <point x="111" y="700"/>
      <point x="1" y="661"/>
      <point x="1" y="536" type="curve" smooth="yes"/>
      <point x="1" y="515"/>
      <point x="3" y="498"/>
      <point x="6" y="492" type="curve"/>
      <point x="55" y="498" type="line"/>
      <point x="56" y="503"/>
      <point x="54" y="518"/>
      <point x="54" y="535" type="curve" smooth="yes"/>
      <point x="54" y="581"/>
      <point x="66" y="604"/>
      <point x="133" y="625" type="curve"/>
      <point x="133" y="11" type="line"/>
      <point x="178" y="1"/>
      <point x="225" y="-6"/>
    </contour>
    <contour>
      <point x="265" y="54" type="curve" smooth="yes"/>
      <point x="267" y="54"/>
      <point x="236" y="53"/>
      <point x="198" y="59" type="curve"/>
      <point x="198" y="636" type="line"/>
      <point x="217" y="639"/>
      <point x="225" y="640"/>
      <point x="248" y="640" type="curve" smooth="yes"/>
      <point x="422" y="640"/>
      <point x="487" y="558"/>
      <point x="487" y="347" type="curve" smooth="yes"/>
      <point x="487" y="141"/>
      <point x="421" y="54"/>
    </contour>
  </outline>
</glyph>
<glyph name="uni018B" format="2">
  <advance width="495"/>
  <unicode hex="018B"/>
  <anchor x="248" y="0" name="bottom"/>
  <anchor x="248" y="693" name="top"/>
  <outline>
    <contour>
      <point x="279" y="-6" type="curve" smooth="yes"/>
      <point x="325" y="-6"/>
      <point x="370" y="2"/>
      <point x="407" y="13" type="curve"/>
      <point x="407" y="693" type="line"/>
      <point x="109" y="693" type="line"/>
      <point x="109" y="637" type="line"/>
      <point x="342" y="637" type="line"/>
      <point x="342" y="427" type="line"/>
      <point x="273" y="427" type="line" smooth="yes"/>
      <point x="161" y="427"/>
      <point x="51" y="381"/>
      <point x="51" y="209" type="curve" smooth="yes"/>
      <point x="51" y="55"/>
      <point x="136" y="-6"/>
    </contour>
    <contour>
      <point x="283" y="53" type="curve" smooth="yes"/>
      <point x="161" y="53"/>
      <point x="120" y="107"/>
      <point x="120" y="213" type="curve" smooth="yes"/>
      <point x="120" y="310"/>
      <point x="155" y="368"/>
      <point x="262" y="368" type="curve" smooth="yes"/>
      <point x="342" y="368" type="line"/>
      <point x="342" y="61" type="line"/>
      <point x="318" y="54"/>
      <point x="296" y="53"/>
    </contour>
  </outline>
</glyph>
<glyph name="uni0190" format="2">
  <advance width="416"/>
  <unicode hex="0190"/>
  <anchor x="209" y="0" name="bottom"/>
  <anchor x="209" y="693" name="top"/>
  <outline>
    <contour>
      <point x="253" y="-11" type="curve" smooth="yes"/>
      <point x="289" y="-11"/>
      <point x="331" y="-8"/>
      <point x="381" y="20" type="curve"/>
      <point x="371" y="67" type="line"/>
      <point x="324" y="39"/>
      <point x="283" y="44"/>
      <point x="260" y="44" type="curve" smooth="yes"/>
      <point x="178" y="44"/>
      <point x="112" y="103"/>
      <point x="112" y="198" type="curve" smooth="yes"/>
      <point x="112" y="268"/>
      <point x="149" y="343"/>
      <point x="279" y="343" type="curve" smooth="yes"/>
      <point x="314" y="343" type="line"/>
      <point x="314" y="395" type="line"/>
      <point x="294" y="395" type="line" smooth="yes"/>
      <point x="150" y="395"/>
      <point x="135" y="462"/>
      <point x="135" y="530" type="curve" smooth="yes"/>
      <point x="135" y="606"/>
      <point x="182" y="648"/>
      <point x="256" y="648" type="curve" smooth="yes"/>
      <point x="287" y="648"/>
      <point x="322" y="638"/>
      <point x="353" y="616" type="curve"/>
      <point x="368" y="666" type="line"/>
      <point x="323" y="697"/>
      <point x="281" y="704"/>
      <point x="244" y="704" type="curve" smooth="yes"/>
      <point x="154" y="704"/>
      <point x="76" y="635"/>
      <point x="76" y="536" type="curve" smooth="yes"/>
      <point x="76" y="442"/>
      <point x="113" y="393"/>
      <point x="168" y="369" type="curve"/>
      <point x="86" y="348"/>
      <point x="53" y="271"/>
      <point x="53" y="197" type="curve" smooth="yes"/>
      <point x="53" y="66"/>
      <point x="135" y="-11"/>
    </contour>
  </outline>
</glyph>
<glyph name="uni0191" format="2">
  <advance width="411"/>
  <unicode hex="0191"/>
  <outline>
    <contour>
      <point x="43" y="-187" type="curve" smooth="yes"/>
      <point x="89" y="-187"/>
      <point x="152" y="-164"/>
      <point x="152" y="-56" type="curve"/>
      <point x="152" y="334" type="line"/>
      <point x="352" y="334" type="line"/>
      <point x="352" y="388" type="line"/>
      <point x="152" y="388" type="line"/>
      <point x="152" y="636" type="line"/>
      <point x="377" y="636" type="line"/>
      <point x="377" y="693" type="line"/>
      <point x="87" y="693" type="line"/>
      <point x="87" y="-46" type="line" smooth="yes"/>
      <point x="87" y="-114"/>
      <point x="63" y="-130"/>
      <point x="31" y="-130" type="curve" smooth="yes"/>
      <point x="20" y="-130"/>
      <point x="10" y="-129"/>
      <point x="-5" y="-125" type="curve"/>
      <point x="-16" y="-178" type="line"/>
      <point x="5" y="-186"/>
      <point x="20" y="-187"/>
    </contour>
  </outline>
</glyph>
<glyph name="florin" format="2">
  <advance width="421"/>
  <unicode hex="0192"/>
  <outline>
    <contour>
      <point x="78" y="-188" type="curve" smooth="yes"/>
      <point x="150" y="-188"/>
      <point x="191" y="-139"/>
      <point x="191" y="-32" type="curve" smooth="yes"/>
      <point x="191" y="464" type="line"/>
      <point x="340" y="464" type="line"/>
      <point x="340" y="517" type="line"/>
      <point x="191" y="517" type="line"/>
      <point x="191" y="606" type="line" smooth="yes"/>
      <point x="191" y="692"/>
      <point x="222" y="723"/>
      <point x="288" y="723" type="curve" smooth="yes"/>
      <point x="301" y="723"/>
      <point x="318" y="721"/>
      <point x="343" y="709" type="curve"/>
      <point x="358" y="761" type="line"/>
      <point x="322" y="773"/>
      <point x="297" y="776"/>
      <point x="282" y="776" type="curve" smooth="yes"/>
      <point x="187" y="776"/>
      <point x="130" y="719"/>
      <point x="130" y="605" type="curve" smooth="yes"/>
      <point x="130" y="-42" type="line" smooth="yes"/>
      <point x="130" y="-116"/>
      <point x="110" y="-135"/>
      <point x="72" y="-135" type="curve" smooth="yes"/>
      <point x="58" y="-135"/>
      <point x="47" y="-134"/>
      <point x="32" y="-130" type="curve"/>
      <point x="27" y="-181" type="line"/>
      <point x="47" y="-186"/>
      <point x="56" y="-188"/>
    </contour>
  </outline>
</glyph>
<glyph name="uni0197" format="2">
  <advance width="275"/>
  <unicode hex="0197"/>
  <outline>
    <contour>
      <point x="105" y="0" type="line"/>
      <point x="170" y="0" type="line"/>
      <point x="170" y="338" type="line"/>
      <point x="254" y="338" type="line"/>
      <point x="254" y="384" type="line"/>
      <point x="170" y="384" type="line"/>
      <point x="170" y="693" type="line"/>
      <point x="105" y="693" type="line"/>
      <point x="105" y="384" type="line"/>
      <point x="21" y="384" type="line"/>
      <point x="21" y="338" type="line"/>
      <point x="105" y="338" type="line"/>
    </contour>
  </outline>
</glyph>
<glyph name="uni019A" format="2">
  <advance width="218"/>
  <unicode hex="019A"/>
  <outline>
    <contour>
      <point x="192" y="-5" type="curve"/>
      <point x="201" y="48" type="line"/>
      <point x="152" y="57"/>
      <point x="138" y="89"/>
      <point x="138" y="124" type="curve" smooth="yes"/>
      <point x="138" y="381" type="line"/>
      <point x="207" y="381" type="line"/>
      <point x="207" y="425" type="line"/>
      <point x="138" y="425" type="line"/>
      <point x="138" y="776" type="line"/>
      <point x="77" y="764" type="line"/>
      <point x="77" y="425" type="line"/>
      <point x="15" y="425" type="line"/>
      <point x="15" y="381" type="line"/>
      <point x="77" y="381" type="line"/>
      <point x="77" y="128" type="line" smooth="yes"/>
      <point x="77" y="50"/>
      <point x="109" y="-1"/>
    </contour>
  </outline>
</glyph>
<glyph name="uni019B" format="2">
  <advance width="387"/>
  <unicode hex="019B"/>
  <anchor x="194" y="0" name="bottom"/>
  <anchor x="194" y="776" name="top"/>
  <outline>
    <contour>
      <point x="17" y="0" type="curve"/>
      <point x="78" y="0" type="line"/>
      <point x="129" y="183"/>
      <point x="179" y="355"/>
      <point x="208" y="452" type="curve"/>
      <point x="235" y="348"/>
      <point x="269" y="174"/>
      <point x="308" y="0" type="curve"/>
      <point x="371" y="0" type="line"/>
      <point x="312" y="276"/>
      <point x="259" y="496"/>
      <point x="222" y="611" type="curve"/>
      <point x="303" y="637" type="line"/>
      <point x="290" y="681" type="line"/>
      <point x="207" y="654" type="line"/>
      <point x="166" y="761"/>
      <point x="127" y="774"/>
      <point x="64" y="774" type="curve" smooth="yes"/>
      <point x="59" y="774"/>
      <point x="42" y="773"/>
      <point x="17" y="767" type="curve"/>
      <point x="25" y="710" type="line"/>
      <point x="40" y="713"/>
      <point x="53" y="714"/>
      <point x="58" y="714" type="curve" smooth="yes"/>
      <point x="91" y="714"/>
      <point x="126" y="699"/>
      <point x="152" y="636" type="curve"/>
      <point x="60" y="606" type="line"/>
      <point x="71" y="563" type="line"/>
      <point x="165" y="593" type="line"/>
      <point x="167" y="582"/>
      <point x="168" y="572"/>
      <point x="180" y="536" type="curve"/>
      <point x="129" y="401"/>
      <point x="78" y="231"/>
    </contour>
  </outline>
</glyph>
<glyph name="uni019F" format="2">
  <advance width="594"/>
  <unicode hex="019F"/>
  <outline>
    <contour>
      <point x="297" y="-11" type="curve" smooth="yes"/>
      <point x="475" y="-11"/>
      <point x="535" y="148"/>
      <point x="535" y="345" type="curve" smooth="yes"/>
      <point x="535" y="543"/>
      <point x="473" y="705"/>
      <point x="297" y="705" type="curve" smooth="yes"/>
      <point x="121" y="705"/>
      <point x="59" y="543"/>
      <point x="59" y="345" type="curve" smooth="yes"/>
      <point x="59" y="148"/>
      <point x="120" y="-11"/>
    </contour>
    <contour>
      <point x="297" y="46" type="curve" smooth="yes"/>
      <point x="186" y="46"/>
      <point x="130" y="157"/>
      <point x="128" y="324" type="curve"/>
      <point x="465" y="324" type="line"/>
      <point x="464" y="154"/>
      <point x="407" y="46"/>
    </contour>
    <contour>
      <point x="127" y="370" type="line"/>
      <point x="131" y="535"/>
      <point x="187" y="648"/>
      <point x="297" y="648" type="curve" smooth="yes"/>
      <point x="408" y="648"/>
      <point x="462" y="534"/>
      <point x="465" y="370" type="curve"/>
    </contour>
  </outline>
</glyph>
<glyph name="uni01A2" format="2">
  <advance width="816"/>
  <unicode hex="01A2"/>
  <outline>
    <contour>
      <point x="295" y="-11" type="curve" smooth="yes"/>
      <point x="472" y="-11"/>
      <point x="529" y="150"/>
      <point x="529" y="345" type="curve" smooth="yes"/>
      <point x="529" y="448"/>
      <point x="511" y="539"/>
      <point x="471" y="605" type="curve"/>
      <point x="513" y="645"/>
      <point x="548" y="647"/>
      <point x="575" y="647" type="curve" smooth="yes"/>
      <point x="641" y="647"/>
      <point x="669" y="606"/>
      <point x="669" y="484" type="curve" smooth="yes"/>
      <point x="669" y="0" type="line"/>
      <point x="734" y="0" type="line"/>
      <point x="734" y="502" type="line" smooth="yes"/>
      <point x="734" y="678"/>
      <point x="650" y="706"/>
      <point x="578" y="706" type="curve" smooth="yes"/>
      <point x="550" y="706"/>
      <point x="499" y="708"/>
      <point x="434" y="652" type="curve"/>
      <point x="400" y="684"/>
      <point x="354" y="705"/>
      <point x="295" y="705" type="curve" smooth="yes"/>
      <point x="118" y="705"/>
      <point x="59" y="543"/>
      <point x="59" y="346" type="curve" smooth="yes"/>
      <point x="59" y="150"/>
      <point x="121" y="-11"/>
    </contour>
    <contour>
      <point x="295" y="46" type="curve" smooth="yes"/>
      <point x="184" y="46"/>
      <point x="128" y="168"/>
      <point x="128" y="346" type="curve" smooth="yes"/>
      <point x="128" y="524"/>
      <point x="184" y="648"/>
      <point x="295" y="648" type="curve" smooth="yes"/>
      <point x="406" y="648"/>
      <point x="461" y="523"/>
      <point x="461" y="345" type="curve" smooth="yes"/>
      <point x="461" y="167"/>
      <point x="406" y="46"/>
    </contour>
  </outline>
</glyph>
<glyph name="uni01A6" format="2">
  <advance width="496"/>
  <unicode hex="01A6"/>
  <outline>
    <contour>
      <point x="440" y="-109" type="curve"/>
      <point x="505" y="-109" type="line"/>
      <point x="479" y="-6"/>
      <point x="396" y="188"/>
      <point x="319" y="303" type="curve"/>
      <point x="393" y="332"/>
      <point x="429" y="390"/>
      <point x="429" y="486" type="curve" smooth="yes"/>
      <point x="429" y="639"/>
      <point x="344" y="701"/>
      <point x="211" y="701" type="curve" smooth="yes"/>
      <point x="185" y="701"/>
      <point x="177" y="701"/>
      <point x="150" y="697" type="curve"/>
      <point x="150" y="776" type="line"/>
      <point x="87" y="776" type="line"/>
      <point x="87" y="0" type="line"/>
      <point x="150" y="0" type="line"/>
      <point x="150" y="277" type="line"/>
      <point x="180" y="277" type="line" smooth="yes"/>
      <point x="209" y="277"/>
      <point x="236" y="278"/>
      <point x="260" y="283" type="curve"/>
      <point x="348" y="158"/>
      <point x="429" y="-55"/>
    </contour>
    <contour>
      <point x="150" y="332" type="line"/>
      <point x="150" y="637" type="line"/>
      <point x="170" y="641"/>
      <point x="198" y="642"/>
      <point x="209" y="642" type="curve" smooth="yes"/>
      <point x="326" y="642"/>
      <point x="361" y="585"/>
      <point x="361" y="486" type="curve" smooth="yes"/>
      <point x="361" y="393"/>
      <point x="327" y="332"/>
      <point x="211" y="332" type="curve" smooth="yes"/>
    </contour>
  </outline>
</glyph>
<glyph name="uni01AA" format="2">
  <advance width="260"/>
  <unicode hex="01AA"/>
  <outline>
    <contour>
      <point x="232" y="-187" type="curve"/>
      <point x="241" y="-129" type="line"/>
      <point x="188" y="-122"/>
      <point x="179" y="-95"/>
      <point x="179" y="-50" type="curve" smooth="yes"/>
      <point x="179" y="642" type="line" smooth="yes"/>
      <point x="179" y="728"/>
      <point x="130" y="776"/>
      <point x="64" y="776" type="curve" smooth="yes"/>
      <point x="-16" y="776"/>
      <point x="-56" y="713"/>
      <point x="-56" y="629" type="curve" smooth="yes"/>
      <point x="-56" y="539"/>
      <point x="-20" y="480"/>
      <point x="51" y="480" type="curve" smooth="yes"/>
      <point x="74" y="480"/>
      <point x="95" y="488"/>
      <point x="114" y="505" type="curve"/>
      <point x="114" y="-53" type="line" smooth="yes"/>
      <point x="114" y="-133"/>
      <point x="138" y="-180"/>
    </contour>
    <contour>
      <point x="44" y="528" type="curve" smooth="yes"/>
      <point x="11" y="528"/>
      <point x="-10" y="564"/>
      <point x="-10" y="632" type="curve" smooth="yes"/>
      <point x="-10" y="690"/>
      <point x="14" y="730"/>
      <point x="57" y="730" type="curve" smooth="yes"/>
      <point x="92" y="730"/>
      <point x="114" y="690"/>
      <point x="114" y="641" type="curve" smooth="yes"/>
      <point x="114" y="571" type="line"/>
      <point x="95" y="538"/>
      <point x="65" y="528"/>
    </contour>
  </outline>
</glyph>
<glyph name="uni01B3" format="2">
  <advance width="512"/>
  <unicode hex="01B3"/>
  <anchor x="256" y="0" name="bottom"/>
  <anchor x="256" y="693" name="top"/>
  <outline>
    <contour>
      <point x="182" y="0" type="line"/>
      <point x="247" y="0" type="line"/>
      <point x="247" y="277" type="line"/>
      <point x="294" y="364"/>
      <point x="341" y="465"/>
      <point x="394" y="596" type="curve" smooth="yes"/>
      <point x="411" y="632"/>
      <point x="424" y="653"/>
      <point x="450" y="653" type="curve" smooth="yes"/>
      <point x="467" y="653"/>
      <point x="476" y="651"/>
      <point x="498" y="635" type="curve"/>
      <point x="518" y="684" type="line"/>
      <point x="485" y="709"/>
      <point x="459" y="709"/>
      <point x="437" y="709" type="curve" smooth="yes"/>
      <point x="392" y="709"/>
      <point x="358" y="681"/>
      <point x="341" y="632" type="curve" smooth="yes"/>
      <point x="276" y="473"/>
      <point x="257" y="430"/>
      <point x="214" y="343" type="curve"/>
      <point x="161" y="450"/>
      <point x="110" y="582"/>
      <point x="73" y="693" type="curve"/>
      <point x="7" y="693" type="line"/>
      <point x="59" y="547"/>
      <point x="123" y="388"/>
      <point x="182" y="272" type="curve"/>
    </contour>
  </outline>
</glyph>
<glyph name="uni01B9" format="2">
  <advance width="353"/>
  <unicode hex="01B9"/>
  <anchor x="176" y="0" name="bottom"/>
  <anchor x="176" y="517" name="top"/>
  <outline>
    <contour>
      <point x="231" y="-188" type="curve" smooth="yes"/>
      <point x="259" y="-188"/>
      <point x="293" y="-182"/>
      <point x="338" y="-162" type="curve"/>
      <point x="326" y="-109" type="line"/>
      <point x="280" y="-130"/>
      <point x="254" y="-134"/>
      <point x="231" y="-134" type="curve" smooth="yes"/>
      <point x="158" y="-134"/>
      <point x="91" y="-85"/>
      <point x="91" y="19" type="curve" smooth="yes"/>
      <point x="91" y="95"/>
      <point x="115" y="169"/>
      <point x="249" y="169" type="curve" smooth="yes"/>
      <point x="266" y="169" type="line"/>
      <point x="266" y="210" type="line"/>
      <point x="224" y="277"/>
      <point x="162" y="369"/>
      <point x="114" y="463" type="curve"/>
      <point x="323" y="463" type="line"/>
      <point x="323" y="517" type="line"/>
      <point x="52" y="517" type="line"/>
      <point x="52" y="472" type="line"/>
      <point x="97" y="390"/>
      <point x="125" y="339"/>
      <point x="204" y="218" type="curve"/>
      <point x="61" y="198"/>
      <point x="30" y="108"/>
      <point x="30" y="13" type="curve" smooth="yes"/>
      <point x="30" y="-104"/>
      <point x="102" y="-188"/>
    </contour>
  </outline>
</glyph>
<glyph name="uni01BA" format="2">
  <advance width="350"/>
  <unicode hex="01BA"/>
  <anchor x="176" y="0" name="bottom"/>
  <anchor x="176" y="517" name="top"/>
  <outline>
    <contour>
      <point x="25" y="-188" type="curve"/>
      <point x="75" y="-172" type="line"/>
      <point x="68" y="-158"/>
      <point x="64" y="-134"/>
      <point x="64" y="-124" type="curve" smooth="yes"/>
      <point x="64" y="-88"/>
      <point x="69" y="-73"/>
      <point x="177" y="-34" type="curve" smooth="yes"/>
      <point x="257" y="-4"/>
      <point x="302" y="49"/>
      <point x="302" y="127" type="curve" smooth="yes"/>
      <point x="302" y="220"/>
      <point x="241" y="266"/>
      <point x="157" y="276" type="curve"/>
      <point x="189" y="323"/>
      <point x="233" y="381"/>
      <point x="287" y="472" type="curve"/>
      <point x="287" y="517" type="line"/>
      <point x="14" y="517" type="line"/>
      <point x="14" y="463" type="line"/>
      <point x="232" y="463" type="line"/>
      <point x="178" y="377"/>
      <point x="133" y="318"/>
      <point x="103" y="278" type="curve"/>
      <point x="103" y="237" type="line"/>
      <point x="155" y="233"/>
      <point x="241" y="215"/>
      <point x="241" y="129" type="curve" smooth="yes"/>
      <point x="241" y="79"/>
      <point x="217" y="37"/>
      <point x="160" y="15" type="curve"/>
      <point x="36" y="-30"/>
      <point x="8" y="-57"/>
      <point x="8" y="-123" type="curve" smooth="yes"/>
      <point x="8" y="-131"/>
      <point x="12" y="-159"/>
    </contour>
  </outline>
</glyph>
<glyph name="uni01BF" format="2">
  <advance width="454"/>
  <unicode hex="01BF"/>
  <outline>
    <contour>
      <point x="83" y="-185" type="line"/>
      <point x="144" y="-185" type="line"/>
      <point x="144" y="-53" type="line"/>
      <point x="333" y="17"/>
      <point x="403" y="137"/>
      <point x="403" y="296" type="curve" smooth="yes"/>
      <point x="403" y="446"/>
      <point x="320" y="528"/>
      <point x="212" y="528" type="curve" smooth="yes"/>
      <point x="176" y="528"/>
      <point x="129" y="517"/>
      <point x="83" y="493" type="curve"/>
    </contour>
    <contour>
      <point x="144" y="8" type="curve"/>
      <point x="144" y="459" type="line"/>
      <point x="180" y="475"/>
      <point x="201" y="476"/>
      <point x="202" y="476" type="curve" smooth="yes"/>
      <point x="276" y="476"/>
      <point x="340" y="423"/>
      <point x="340" y="296" type="curve" smooth="yes"/>
      <point x="340" y="182"/>
      <point x="325" y="79"/>
    </contour>
  </outline>
</glyph>
<glyph name="uni01E5" format="2">
  <advance width="462"/>
  <unicode hex="01E5"/>
  <outline>
    <contour>
      <point x="195" y="-188" type="curve" smooth="yes"/>
      <point x="302" y="-188"/>
      <point x="375" y="-135"/>
      <point x="375" y="4" type="curve" smooth="yes"/>
      <point x="375" y="256" type="line"/>
      <point x="447" y="256" type="line"/>
      <point x="447" y="303" type="line"/>
      <point x="375" y="303" type="line"/>
      <point x="375" y="506" type="line"/>
      <point x="328" y="528"/>
      <point x="273" y="535"/>
      <point x="249" y="535" type="curve" smooth="yes"/>
      <point x="111" y="535"/>
      <point x="51" y="437"/>
      <point x="51" y="265" type="curve" smooth="yes"/>
      <point x="51" y="130"/>
      <point x="86" y="23"/>
      <point x="226" y="23" type="curve" smooth="yes"/>
      <point x="242" y="23"/>
      <point x="272" y="21"/>
      <point x="314" y="46" type="curve"/>
      <point x="314" y="8" type="line" smooth="yes"/>
      <point x="314" y="-99"/>
      <point x="270" y="-134"/>
      <point x="186" y="-134" type="curve" smooth="yes"/>
      <point x="158" y="-134"/>
      <point x="122" y="-122"/>
      <point x="100" y="-108" type="curve"/>
      <point x="85" y="-159" type="line"/>
      <point x="120" y="-179"/>
      <point x="168" y="-188"/>
    </contour>
    <contour>
      <point x="239" y="77" type="curve" smooth="yes"/>
      <point x="147" y="77"/>
      <point x="114" y="146"/>
      <point x="114" y="265" type="curve" smooth="yes"/>
      <point x="114" y="416"/>
      <point x="161" y="481"/>
      <point x="248" y="481" type="curve" smooth="yes"/>
      <point x="248" y="481"/>
      <point x="285" y="478"/>
      <point x="314" y="469" type="curve"/>
      <point x="314" y="303" type="line"/>
      <point x="228" y="303" type="line"/>
      <point x="228" y="256" type="line"/>
      <point x="314" y="256" type="line"/>
      <point x="314" y="99" type="line"/>
      <point x="288" y="82"/>
      <point x="260" y="77"/>
    </contour>
  </outline>
</glyph>
<glyph name="uni021D" format="2">
  <advance width="343"/>
  <unicode hex="021D"/>
  <outline>
    <contour>
      <point x="18" y="-182" type="line"/>
      <point x="246" y="-182"/>
      <point x="305" y="-85"/>
      <point x="305" y="33" type="curve" smooth="yes"/>
      <point x="305" y="107"/>
      <point x="266" y="178"/>
      <point x="206" y="204" type="curve"/>
      <point x="263" y="238"/>
      <point x="281" y="298"/>
      <point x="281" y="369" type="curve" smooth="yes"/>
      <point x="281" y="449"/>
      <point x="236" y="531"/>
      <point x="133" y="531" type="curve" smooth="yes"/>
      <point x="93" y="531"/>
      <point x="60" y="517"/>
      <point x="11" y="492" type="curve"/>
      <point x="34" y="443" type="line"/>
      <point x="77" y="467"/>
      <point x="110" y="475"/>
      <point x="128" y="474" type="curve" smooth="yes"/>
      <point x="181" y="474"/>
      <point x="215" y="427"/>
      <point x="215" y="363" type="curve" smooth="yes"/>
      <point x="215" y="294"/>
      <point x="205" y="229"/>
      <point x="122" y="229" type="curve" smooth="yes"/>
      <point x="80" y="229" type="line"/>
      <point x="80" y="176" type="line"/>
      <point x="122" y="176" type="line" smooth="yes"/>
      <point x="232" y="176"/>
      <point x="240" y="101"/>
      <point x="240" y="33" type="curve" smooth="yes"/>
      <point x="240" y="-65"/>
      <point x="184" y="-136"/>
      <point x="17" y="-128" type="curve"/>
    </contour>
  </outline>
</glyph>
<glyph name="uni0223" format="2">
  <advance width="467"/>
  <unicode hex="0223"/>
  <outline>
    <contour>
      <point x="234" y="-9" type="curve" smooth="yes"/>
      <point x="340" y="-9"/>
      <point x="414" y="59"/>
      <point x="414" y="235" type="curve" smooth="yes"/>
      <point x="414" y="342"/>
      <point x="382" y="419"/>
      <point x="318" y="455" type="curve"/>
      <point x="366" y="484"/>
      <point x="386" y="533"/>
      <point x="386" y="624" type="curve" smooth="yes"/>
      <point x="386" y="679"/>
      <point x="380" y="732"/>
      <point x="374" y="776" type="curve"/>
      <point x="313" y="776" type="line"/>
      <point x="321" y="726"/>
      <point x="323" y="673"/>
      <point x="323" y="634" type="curve" smooth="yes"/>
      <point x="323" y="518"/>
      <point x="297" y="480"/>
      <point x="234" y="480" type="curve" smooth="yes"/>
      <point x="170" y="480"/>
      <point x="144" y="518"/>
      <point x="144" y="634" type="curve" smooth="yes"/>
      <point x="144" y="673"/>
      <point x="146" y="726"/>
      <point x="154" y="776" type="curve"/>
      <point x="94" y="776" type="line"/>
      <point x="87" y="732"/>
      <point x="82" y="679"/>
      <point x="82" y="624" type="curve" smooth="yes"/>
      <point x="82" y="533"/>
      <point x="100" y="484"/>
      <point x="149" y="455" type="curve"/>
      <point x="85" y="419"/>
      <point x="53" y="342"/>
      <point x="53" y="235" type="curve" smooth="yes"/>
      <point x="53" y="60"/>
      <point x="127" y="-9"/>
    </contour>
    <contour>
      <point x="234" y="47" type="curve" smooth="yes"/>
      <point x="161" y="47"/>
      <point x="116" y="102"/>
      <point x="116" y="235" type="curve" smooth="yes"/>
      <point x="116" y="368"/>
      <point x="159" y="423"/>
      <point x="234" y="423" type="curve" smooth="yes"/>
      <point x="309" y="423"/>
      <point x="351" y="368"/>
      <point x="351" y="235" type="curve" smooth="yes"/>
      <point x="351" y="102"/>
      <point x="307" y="47"/>
    </contour>
  </outline>
</glyph>
<glyph name="uni0235" format="2">
  <advance width="549"/>
  <unicode hex="0235"/>
  <outline>
    <contour>
      <point x="446" y="-180" type="curve" smooth="yes"/>
      <point x="533" y="-180"/>
      <point x="563" y="-105"/>
      <point x="563" y="-44" type="curve" smooth="yes"/>
      <point x="563" y="35"/>
      <point x="530" y="93"/>
      <point x="467" y="93" type="curve" smooth="yes"/>
      <point x="436" y="93"/>
      <point x="415" y="81"/>
      <point x="394" y="58" type="curve"/>
      <point x="394" y="314" type="line" smooth="yes"/>
      <point x="394" y="491"/>
      <point x="328" y="533"/>
      <point x="229" y="533" type="curve" smooth="yes"/>
      <point x="190" y="533"/>
      <point x="130" y="522"/>
      <point x="81" y="505" type="curve"/>
      <point x="81" y="0" type="line"/>
      <point x="142" y="0" type="line"/>
      <point x="142" y="462" type="line"/>
      <point x="170" y="470"/>
      <point x="201" y="479"/>
      <point x="226" y="479" type="curve" smooth="yes"/>
      <point x="313" y="479"/>
      <point x="333" y="418"/>
      <point x="333" y="309" type="curve" smooth="yes"/>
      <point x="333" y="-12" type="line"/>
      <point x="333" y="-10"/>
      <point x="333" y="-12"/>
      <point x="332" y="-10" type="curve"/>
      <point x="250" y="-152" type="line"/>
      <point x="290" y="-177" type="line"/>
      <point x="342" y="-89" type="line"/>
      <point x="358" y="-151"/>
      <point x="406" y="-180"/>
    </contour>
    <contour>
      <point x="450" y="-139" type="curve" smooth="yes"/>
      <point x="414" y="-139"/>
      <point x="393" y="-95"/>
      <point x="393" y="-40" type="curve" smooth="yes"/>
      <point x="393" y="-2" type="line"/>
      <point x="413" y="35"/>
      <point x="443" y="52"/>
      <point x="464" y="52" type="curve" smooth="yes"/>
      <point x="496" y="52"/>
      <point x="513" y="23"/>
      <point x="513" y="-47" type="curve" smooth="yes"/>
      <point x="513" y="-115"/>
      <point x="487" y="-139"/>
    </contour>
  </outline>
</glyph>
<glyph name="uni023F" format="2">
  <advance width="327"/>
  <unicode hex="023F"/>
  <outline>
    <contour>
      <point x="253" y="-188" type="curve" smooth="yes"/>
      <point x="264" y="-188"/>
      <point x="271" y="-187"/>
      <point x="290" y="-183" type="curve"/>
      <point x="284" y="-132" type="line"/>
      <point x="274" y="-134"/>
      <point x="260" y="-136"/>
      <point x="251" y="-136" type="curve" smooth="yes"/>
      <point x="241" y="-136"/>
      <point x="216" y="-123"/>
      <point x="184" y="-81" type="curve" smooth="yes"/>
      <point x="180" y="-73"/>
      <point x="157" y="-45"/>
      <point x="136" y="-14" type="curve"/>
      <point x="142" y="-14"/>
      <point x="144" y="-14"/>
      <point x="151" y="-14" type="curve" smooth="yes"/>
      <point x="251" y="-12"/>
      <point x="298" y="55"/>
      <point x="298" y="141" type="curve" smooth="yes"/>
      <point x="298" y="203"/>
      <point x="276" y="246"/>
      <point x="193" y="287" type="curve" smooth="yes"/>
      <point x="130" y="319"/>
      <point x="107" y="348"/>
      <point x="107" y="397" type="curve" smooth="yes"/>
      <point x="107" y="447"/>
      <point x="134" y="484"/>
      <point x="191" y="484" type="curve" smooth="yes"/>
      <point x="197" y="484"/>
      <point x="227" y="483"/>
      <point x="265" y="464" type="curve"/>
      <point x="279" y="511" type="line"/>
      <point x="248" y="528"/>
      <point x="206" y="537"/>
      <point x="185" y="537" type="curve" smooth="yes"/>
      <point x="103" y="537"/>
      <point x="47" y="481"/>
      <point x="47" y="399" type="curve" smooth="yes"/>
      <point x="47" y="336"/>
      <point x="59" y="293"/>
      <point x="132" y="257" type="curve" smooth="yes"/>
      <point x="192" y="226"/>
      <point x="236" y="198"/>
      <point x="236" y="139" type="curve" smooth="yes"/>
      <point x="236" y="89"/>
      <point x="212" y="43"/>
      <point x="152" y="43" type="curve" smooth="yes"/>
      <point x="111" y="43"/>
      <point x="77" y="59"/>
      <point x="49" y="70" type="curve"/>
      <point x="42" y="17" type="line"/>
      <point x="60" y="6"/>
      <point x="66" y="1"/>
      <point x="77" y="-16" type="curve" smooth="yes"/>
      <point x="99" y="-49"/>
      <point x="116" y="-72"/>
      <point x="124" y="-90" type="curve" smooth="yes"/>
      <point x="167" y="-153"/>
      <point x="205" y="-188"/>
    </contour>
  </outline>
</glyph>
<glyph name="uni0241" format="2">
  <advance width="377"/>
  <unicode hex="0241"/>
  <outline>
    <contour>
      <point x="110" y="0" type="line"/>
      <point x="175" y="0" type="line"/>
      <point x="175" y="180" type="line" smooth="yes"/>
      <point x="175" y="257"/>
      <point x="209" y="302"/>
      <point x="253" y="350" type="curve" smooth="yes"/>
      <point x="321" y="412"/>
      <point x="344" y="463"/>
      <point x="344" y="541" type="curve" smooth="yes"/>
      <point x="344" y="647"/>
      <point x="266" y="705"/>
      <point x="161" y="705" type="curve" smooth="yes"/>
      <point x="121" y="705"/>
      <point x="84" y="698"/>
      <point x="18" y="662" type="curve"/>
      <point x="37" y="610" type="line"/>
      <point x="95" y="644"/>
      <point x="133" y="646"/>
      <point x="159" y="646" type="curve" smooth="yes"/>
      <point x="236" y="646"/>
      <point x="279" y="600"/>
      <point x="279" y="539" type="curve" smooth="yes"/>
      <point x="279" y="482"/>
      <point x="267" y="453"/>
      <point x="209" y="401" type="curve" smooth="yes"/>
      <point x="143" y="335"/>
      <point x="110" y="291"/>
      <point x="110" y="177" type="curve"/>
    </contour>
  </outline>
</glyph>
<glyph name="uni024B" format="2">
  <advance width="455"/>
  <unicode hex="024B"/>
  <anchor x="228" y="0" name="bottom"/>
  <anchor x="228" y="517" name="top"/>
  <outline>
    <contour>
      <point x="427" y="-188" type="curve" smooth="yes"/>
      <point x="442" y="-188"/>
      <point x="457" y="-187"/>
      <point x="479" y="-179" type="curve"/>
      <point x="469" y="-126" type="line"/>
      <point x="458" y="-129"/>
      <point x="445" y="-132"/>
      <point x="436" y="-132" type="curve" smooth="yes"/>
      <point x="401" y="-132"/>
      <point x="375" y="-115"/>
      <point x="375" y="-42" type="curve" smooth="yes"/>
      <point x="375" y="508" type="line"/>
      <point x="336" y="525"/>
      <point x="283" y="534"/>
      <point x="259" y="534" type="curve" smooth="yes"/>
      <point x="95" y="534"/>
      <point x="52" y="433"/>
      <point x="52" y="257" type="curve" smooth="yes"/>
      <point x="52" y="74"/>
      <point x="101" y="-10"/>
      <point x="221" y="-10" type="curve" smooth="yes"/>
      <point x="264" y="-10"/>
      <point x="289" y="2"/>
      <point x="314" y="16" type="curve"/>
      <point x="314" y="-60" type="line" smooth="yes"/>
      <point x="314" y="-171"/>
      <point x="387" y="-188"/>
    </contour>
    <contour>
      <point x="229" y="44" type="curve" smooth="yes"/>
      <point x="170" y="44"/>
      <point x="115" y="81"/>
      <point x="115" y="258" type="curve" smooth="yes"/>
      <point x="115" y="411"/>
      <point x="152" y="480"/>
      <point x="254" y="480" type="curve" smooth="yes"/>
      <point x="257" y="480"/>
      <point x="287" y="475"/>
      <point x="314" y="468" type="curve"/>
      <point x="314" y="67" type="line"/>
      <point x="288" y="50"/>
      <point x="258" y="44"/>
    </contour>
  </outline>
</glyph>
<glyph name="uni024F" format="2">
  <advance width="386"/>
  <unicode hex="024F"/>
  <anchor x="193" y="0" name="bottom"/>
  <anchor x="193" y="517" name="top"/>
  <outline>
    <contour>
      <point x="68" y="-188" type="curve" smooth="yes"/>
      <point x="129" y="-188"/>
      <point x="174" y="-144"/>
      <point x="221" y="-19" type="curve" smooth="yes"/>
      <point x="247" y="49"/>
      <point x="277" y="152"/>
      <point x="313" y="288" type="curve"/>
      <point x="384" y="288" type="line"/>
      <point x="384" y="325" type="line"/>
      <point x="323" y="325" type="line"/>
      <point x="340" y="390"/>
      <point x="354" y="456"/>
      <point x="366" y="522" type="curve"/>
      <point x="306" y="522" type="line"/>
      <point x="295" y="456"/>
      <point x="282" y="389"/>
      <point x="266" y="325" type="curve"/>
      <point x="124" y="325" type="line"/>
      <point x="111" y="390"/>
      <point x="100" y="457"/>
      <point x="88" y="522" type="curve"/>
      <point x="26" y="522" type="line"/>
      <point x="37" y="461"/>
      <point x="48" y="393"/>
      <point x="65" y="325" type="curve"/>
      <point x="10" y="325" type="line"/>
      <point x="10" y="288" type="line"/>
      <point x="73" y="288" type="line"/>
      <point x="101" y="172"/>
      <point x="136" y="64"/>
      <point x="166" y="-15" type="curve"/>
      <point x="123" y="-108"/>
      <point x="105" y="-135"/>
      <point x="65" y="-135" type="curve" smooth="yes"/>
      <point x="56" y="-135"/>
      <point x="46" y="-135"/>
      <point x="23" y="-127" type="curve"/>
      <point x="12" y="-176" type="line"/>
      <point x="36" y="-187"/>
      <point x="52" y="-188"/>
    </contour>
    <contour>
      <point x="193" y="73" type="curve"/>
      <point x="170" y="137"/>
      <point x="149" y="210"/>
      <point x="131" y="288" type="curve"/>
      <point x="257" y="288" type="line"/>
      <point x="234" y="199"/>
      <point x="211" y="126"/>
    </contour>
  </outline>
</glyph>
<glyph name="breve" format="2">
  <advance width="308"/>
  <unicode hex="02D8"/>
  <outline>
    <contour>
      <point x="154" y="626" type="curve" smooth="yes"/>
      <point x="235" y="626"/>
      <point x="257" y="679"/>
      <point x="259" y="751" type="curve"/>
      <point x="215" y="751" type="line"/>
      <point x="211" y="677"/>
      <point x="183" y="662"/>
      <point x="154" y="662" type="curve" smooth="yes"/>
      <point x="125" y="662"/>
      <point x="96" y="677"/>
      <point x="93" y="751" type="curve"/>
      <point x="48" y="751" type="line"/>
      <point x="51" y="679"/>
      <point x="72" y="626"/>
    </contour>
  </outline>
</glyph>
<glyph name="Theta" format="2">
  <advance width="594"/>
  <unicode hex="0398"/>
  <outline>
    <contour>
      <point x="297" y="-11" type="curve" smooth="yes"/>
      <point x="475" y="-11"/>
      <point x="535" y="148"/>
      <point x="535" y="345" type="curve" smooth="yes"/>
      <point x="535" y="543"/>
      <point x="473" y="705"/>
      <point x="297" y="705" type="curve" smooth="yes"/>
      <point x="121" y="705"/>
      <point x="59" y="543"/>
      <point x="59" y="345" type="curve" smooth="yes"/>
      <point x="59" y="148"/>
      <point x="120" y="-11"/>
    </contour>
    <contour>
      <point x="297" y="46" type="curve" smooth="yes"/>
      <point x="183" y="46"/>
      <point x="128" y="166"/>
      <point x="128" y="345" type="curve" smooth="yes"/>
      <point x="128" y="524"/>
      <point x="183" y="648"/>
      <point x="297" y="648" type="curve" smooth="yes"/>
      <point x="412" y="648"/>
      <point x="466" y="524"/>
      <point x="466" y="345" type="curve" smooth="yes"/>
      <point x="466" y="166"/>
      <point x="412" y="46"/>
    </contour>
    <contour>
      <point x="189" y="319" type="line"/>
      <point x="402" y="319" type="line"/>
      <point x="402" y="377" type="line"/>
      <point x="189" y="377" type="line"/>
    </contour>
  </outline>
</glyph>
<glyph name="Lambda" format="2">
  <advance width="483"/>
  <unicode hex="039B"/>
  <outline>
    <contour>
      <point x="23" y="0" type="curve"/>
      <point x="87" y="0" type="line"/>
      <point x="129" y="240"/>
      <point x="178" y="418"/>
      <point x="240" y="614" type="curve"/>
      <point x="301" y="424"/>
      <point x="355" y="237"/>
      <point x="395" y="0" type="curve"/>
      <point x="460" y="0" type="line"/>
      <point x="433" y="208"/>
      <point x="366" y="454"/>
      <point x="275" y="693" type="curve"/>
      <point x="206" y="693" type="line"/>
      <point x="133" y="490"/>
      <point x="63" y="259"/>
    </contour>
  </outline>
</glyph>
<glyph name="Omega" format="2">
  <advance width="607"/>
  <unicode hex="03A9"/>
  <anchor x="305" y="0" name="bottom"/>
  <anchor x="20" y="693" name="topleft"/>
  <outline>
    <contour>
      <point x="53" y="0" type="line"/>
      <point x="256" y="0" type="line"/>
      <point x="256" y="38" type="line"/>
      <point x="173" y="132"/>
      <point x="133" y="249"/>
      <point x="133" y="373" type="curve" smooth="yes"/>
      <point x="133" y="567"/>
      <point x="204" y="650"/>
      <point x="304" y="650" type="curve"/>
      <point x="403" y="650"/>
      <point x="474" y="564"/>
      <point x="474" y="373" type="curve" smooth="yes"/>
      <point x="474" y="248"/>
      <point x="431" y="128"/>
      <point x="349" y="38" type="curve"/>
      <point x="349" y="0" type="line"/>
      <point x="554" y="0" type="line"/>
      <point x="554" y="57" type="line"/>
      <point x="429" y="57" type="line"/>
      <point x="508" y="144"/>
      <point x="542" y="267"/>
      <point x="542" y="377" type="curve" smooth="yes"/>
      <point x="542" y="578"/>
      <point x="462" y="707"/>
      <point x="304" y="707" type="curve" smooth="yes"/>
      <point x="145" y="707"/>
      <point x="65" y="580"/>
      <point x="65" y="377" type="curve" smooth="yes"/>
      <point x="65" y="262"/>
      <point x="98" y="143"/>
      <point x="178" y="57" type="curve"/>
      <point x="53" y="57" type="line"/>
    </contour>
  </outline>
</glyph>
<glyph name="alpha" format="2">
  <advance width="465"/>
  <unicode hex="03B1"/>
  <anchor x="233" y="517" name="top"/>
  <outline>
    <contour>
      <point x="229" y="-13" type="curve" smooth="yes"/>
      <point x="265" y="-13"/>
      <point x="307" y="-4"/>
      <point x="345" y="27" type="curve"/>
      <point x="363" y="5"/>
      <point x="375" y="-7"/>
      <point x="436" y="-10" type="curve"/>
      <point x="444" y="44" type="line"/>
      <point x="384" y="48"/>
      <point x="380" y="80"/>
      <point x="380" y="119" type="curve" smooth="yes"/>
      <point x="380" y="508" type="line"/>
      <point x="321" y="531"/>
      <point x="282" y="535"/>
      <point x="262" y="535" type="curve" smooth="yes"/>
      <point x="127" y="535"/>
      <point x="52" y="444"/>
      <point x="52" y="258" type="curve" smooth="yes"/>
      <point x="52" y="63"/>
      <point x="136" y="-13"/>
    </contour>
    <contour>
      <point x="246" y="41" type="curve" smooth="yes"/>
      <point x="188" y="41"/>
      <point x="115" y="90"/>
      <point x="115" y="259" type="curve" smooth="yes"/>
      <point x="115" y="423"/>
      <point x="178" y="481"/>
      <point x="258" y="481" type="curve" smooth="yes"/>
      <point x="263" y="481"/>
      <point x="276" y="483"/>
      <point x="319" y="468" type="curve"/>
      <point x="319" y="111" type="line" smooth="yes"/>
      <point x="319" y="96"/>
      <point x="319" y="82"/>
      <point x="321" y="68" type="curve"/>
      <point x="291" y="40"/>
      <point x="260" y="41"/>
    </contour>
  </outline>
</glyph>
<glyph name="epsilon" format="2">
  <advance width="379"/>
  <unicode hex="03B5"/>
  <anchor x="190" y="517" name="top"/>
  <outline>
    <contour>
      <point x="226" y="-12" type="curve" smooth="yes"/>
      <point x="242" y="-12"/>
      <point x="292" y="-8"/>
      <point x="341" y="16" type="curve"/>
      <point x="329" y="63" type="line"/>
      <point x="284" y="40"/>
      <point x="248" y="41"/>
      <point x="226" y="41" type="curve" smooth="yes"/>
      <point x="162" y="41"/>
      <point x="108" y="72"/>
      <point x="108" y="143" type="curve" smooth="yes"/>
      <point x="108" y="204"/>
      <point x="142" y="252"/>
      <point x="253" y="252" type="curve" smooth="yes"/>
      <point x="271" y="252" type="line"/>
      <point x="271" y="303" type="line"/>
      <point x="259" y="303" type="line" smooth="yes"/>
      <point x="135" y="303"/>
      <point x="126" y="360"/>
      <point x="126" y="393" type="curve" smooth="yes"/>
      <point x="126" y="444"/>
      <point x="144" y="480"/>
      <point x="221" y="480" type="curve" smooth="yes"/>
      <point x="231" y="480"/>
      <point x="261" y="483"/>
      <point x="306" y="462" type="curve"/>
      <point x="320" y="510" type="line"/>
      <point x="272" y="530"/>
      <point x="231" y="533"/>
      <point x="219" y="533" type="curve" smooth="yes"/>
      <point x="129" y="533"/>
      <point x="66" y="478"/>
      <point x="66" y="401" type="curve" smooth="yes"/>
      <point x="66" y="343"/>
      <point x="94" y="302"/>
      <point x="151" y="279" type="curve"/>
      <point x="77" y="247"/>
      <point x="48" y="205"/>
      <point x="48" y="144" type="curve" smooth="yes"/>
      <point x="48" y="42"/>
      <point x="118" y="-12"/>
    </contour>
  </outline>
</glyph>
<glyph name="phi" format="2">
  <advance width="593"/>
  <unicode hex="03C6"/>
  <outline>
    <contour>
      <point x="270" y="-183" type="line"/>
      <point x="324" y="-183" type="line"/>
      <point x="324" y="-12" type="line"/>
      <point x="470" y="3"/>
      <point x="540" y="102"/>
      <point x="540" y="261" type="curve" smooth="yes"/>
      <point x="540" y="425"/>
      <point x="457" y="535"/>
      <point x="297" y="535" type="curve" smooth="yes"/>
      <point x="138" y="535"/>
      <point x="53" y="425"/>
      <point x="53" y="261" type="curve" smooth="yes"/>
      <point x="53" y="102"/>
      <point x="116" y="4"/>
      <point x="270" y="-12" type="curve"/>
    </contour>
    <contour>
      <point x="270" y="44" type="line"/>
      <point x="170" y="53"/>
      <point x="114" y="133"/>
      <point x="114" y="266" type="curve" smooth="yes"/>
      <point x="114" y="396"/>
      <point x="171" y="463"/>
      <point x="270" y="474" type="curve"/>
    </contour>
    <contour>
      <point x="324" y="44" type="curve"/>
      <point x="324" y="474" type="line"/>
      <point x="424" y="463"/>
      <point x="479" y="396"/>
      <point x="479" y="266" type="curve" smooth="yes"/>
      <point x="479" y="133"/>
      <point x="418" y="53"/>
    </contour>
  </outline>
</glyph>
<glyph name="afii10053" format="2">
  <advance width="464"/>
  <unicode hex="0404"/>
  <outline>
    <contour>
      <point x="310" y="-11" type="curve" smooth="yes"/>
      <point x="344" y="-11"/>
      <point x="388" y="-3"/>
      <point x="436" y="31" type="curve"/>
      <point x="418" y="81" type="line"/>
      <point x="377" y="54"/>
      <point x="349" y="46"/>
      <point x="309" y="46" type="curve" smooth="yes"/>
      <point x="188" y="46"/>
      <point x="127" y="144"/>
      <point x="127" y="335" type="curve"/>
      <point x="337" y="335" type="line"/>
      <point x="337" y="392" type="line"/>
      <point x="127" y="392" type="line"/>
      <point x="131" y="564"/>
      <point x="196" y="648"/>
      <point x="292" y="648" type="curve" smooth="yes"/>
      <point x="327" y="648"/>
      <point x="362" y="642"/>
      <point x="407" y="616" type="curve"/>
      <point x="426" y="668" type="line"/>
      <point x="380" y="700"/>
      <point x="331" y="705"/>
      <point x="301" y="705" type="curve" smooth="yes"/>
      <point x="142" y="705"/>
      <point x="58" y="599"/>
      <point x="58" y="357" type="curve" smooth="yes"/>
      <point x="58" y="116"/>
      <point x="131" y="-11"/>
    </contour>
  </outline>
</glyph>
<glyph name="afii10059" format="2">
  <advance width="819"/>
  <unicode hex="040A"/>
  <outline>
    <contour>
      <point x="556" y="-7" type="curve" smooth="yes"/>
      <point x="684" y="-7"/>
      <point x="781" y="43"/>
      <point x="781" y="196" type="curve" smooth="yes"/>
      <point x="781" y="372"/>
      <point x="672" y="403"/>
      <point x="554" y="403" type="curve" smooth="yes"/>
      <point x="529" y="403"/>
      <point x="519" y="406"/>
      <point x="490" y="408" type="curve"/>
      <point x="490" y="693" type="line"/>
      <point x="425" y="693" type="line"/>
      <point x="425" y="412" type="line"/>
      <point x="152" y="412" type="line"/>
      <point x="152" y="693" type="line"/>
      <point x="87" y="693" type="line"/>
      <point x="87" y="0" type="line"/>
      <point x="152" y="0" type="line"/>
      <point x="152" y="354" type="line"/>
      <point x="425" y="354" type="line"/>
      <point x="425" y="12" type="line"/>
      <point x="461" y="1"/>
      <point x="507" y="-7"/>
    </contour>
    <contour>
      <point x="552" y="52" type="curve" smooth="yes"/>
      <point x="536" y="52"/>
      <point x="514" y="53"/>
      <point x="490" y="60" type="curve"/>
      <point x="490" y="350" type="line"/>
      <point x="521" y="347"/>
      <point x="541" y="344"/>
      <point x="555" y="344" type="curve" smooth="yes"/>
      <point x="679" y="344"/>
      <point x="711" y="292"/>
      <point x="711" y="199" type="curve" smooth="yes"/>
      <point x="711" y="103"/>
      <point x="671" y="52"/>
    </contour>
  </outline>
</glyph>
<glyph name="afii10060" format="2">
  <advance width="576"/>
  <unicode hex="040B"/>
  <outline>
    <contour>
      <point x="175" y="0" type="line"/>
      <point x="240" y="0" type="line"/>
      <point x="240" y="356" type="line"/>
      <point x="280" y="367"/>
      <point x="317" y="376"/>
      <point x="335" y="376" type="curve" smooth="yes"/>
      <point x="429" y="376"/>
      <point x="459" y="323"/>
      <point x="459" y="212" type="curve" smooth="yes"/>
      <point x="459" y="0" type="line"/>
      <point x="520" y="0" type="line"/>
      <point x="520" y="227" type="line" smooth="yes"/>
      <point x="520" y="374"/>
      <point x="441" y="431"/>
      <point x="352" y="431" type="curve" smooth="yes"/>
      <point x="311" y="431"/>
      <point x="275" y="421"/>
      <point x="240" y="409" type="curve"/>
      <point x="240" y="636" type="line"/>
      <point x="408" y="636" type="line"/>
      <point x="408" y="693" type="line"/>
      <point x="17" y="693" type="line"/>
      <point x="17" y="636" type="line"/>
      <point x="175" y="636" type="line"/>
    </contour>
  </outline>
</glyph>
<glyph name="afii10020" format="2">
  <advance width="389"/>
  <unicode hex="0413"/>
  <anchor x="369" y="0" name="bottomright"/>
  <anchor x="194" y="693" name="top"/>
  <outline>
    <contour>
      <point x="87" y="0" type="line"/>
      <point x="152" y="0" type="line"/>
      <point x="152" y="636" type="line"/>
      <point x="363" y="636" type="line"/>
      <point x="363" y="693" type="line"/>
      <point x="87" y="693" type="line"/>
    </contour>
  </outline>
</glyph>
<glyph name="afii10026" format="2">
  <advance width="573"/>
  <unicode hex="0418"/>
  <anchor x="553" y="0" name="bottomright"/>
  <anchor x="287" y="693" name="top"/>
  <outline>
    <contour>
      <point x="87" y="0" type="line"/>
      <point x="140" y="0" type="line"/>
      <point x="214" y="186"/>
      <point x="332" y="410"/>
      <point x="426" y="570" type="curve"/>
      <point x="426" y="0" type="line"/>
      <point x="486" y="0" type="line"/>
      <point x="486" y="693" type="line"/>
      <point x="434" y="693" type="line"/>
      <point x="316" y="501"/>
      <point x="213" y="322"/>
      <point x="147" y="153" type="curve"/>
      <point x="147" y="693" type="line"/>
      <point x="87" y="693" type="line"/>
    </contour>
  </outline>
</glyph>
<glyph name="afii10041" format="2">
  <advance width="491"/>
  <unicode hex="0427"/>
  <anchor x="471" y="0" name="bottomright"/>
  <anchor x="245" y="693" name="top"/>
  <outline>
    <contour>
      <point x="338" y="0" type="line"/>
      <point x="403" y="0" type="line"/>
      <point x="403" y="693" type="line"/>
      <point x="338" y="693" type="line"/>
      <point x="338" y="315" type="line"/>
      <point x="293" y="301"/>
      <point x="260" y="303"/>
      <point x="249" y="303" type="curve" smooth="yes"/>
      <point x="164" y="303"/>
      <point x="126" y="331"/>
      <point x="126" y="459" type="curve" smooth="yes"/>
      <point x="126" y="693" type="line"/>
      <point x="65" y="693" type="line"/>
      <point x="65" y="444" type="line" smooth="yes"/>
      <point x="65" y="250"/>
      <point x="177" y="247"/>
      <point x="234" y="247" type="curve" smooth="yes"/>
      <point x="251" y="247"/>
      <point x="297" y="250"/>
      <point x="338" y="264" type="curve"/>
    </contour>
  </outline>
</glyph>
<glyph name="afii10042" format="2">
  <advance width="758"/>
  <unicode hex="0428"/>
  <outline>
    <contour>
      <point x="87" y="0" type="line"/>
      <point x="670" y="0" type="line"/>
      <point x="670" y="693" type="line"/>
      <point x="605" y="693" type="line"/>
      <point x="605" y="57" type="line"/>
      <point x="412" y="57" type="line"/>
      <point x="412" y="693" type="line"/>
      <point x="347" y="693" type="line"/>
      <point x="347" y="57" type="line"/>
      <point x="152" y="57" type="line"/>
      <point x="152" y="693" type="line"/>
      <point x="87" y="693" type="line"/>
    </contour>
  </outline>
</glyph>
<glyph name="afii10043" format="2">
  <advance width="770"/>
  <unicode hex="0429"/>
  <outline>
    <contour>
      <point x="658" y="-185" type="line"/>
      <point x="721" y="-185" type="line"/>
      <point x="721" y="57" type="line"/>
      <point x="670" y="57" type="line"/>
      <point x="670" y="693" type="line"/>
      <point x="605" y="693" type="line"/>
      <point x="605" y="57" type="line"/>
      <point x="412" y="57" type="line"/>
      <point x="412" y="693" type="line"/>
      <point x="347" y="693" type="line"/>
      <point x="347" y="57" type="line"/>
      <point x="152" y="57" type="line"/>
      <point x="152" y="693" type="line"/>
      <point x="87" y="693" type="line"/>
      <point x="87" y="0" type="line"/>
      <point x="658" y="0" type="line"/>
    </contour>
  </outline>
</glyph>
<glyph name="afii10044" format="2">
  <advance width="532"/>
  <unicode hex="042A"/>
  <anchor x="267" y="693" name="top"/>
  <outline>
    <contour>
      <point x="275" y="-7" type="curve" smooth="yes"/>
      <point x="402" y="-7"/>
      <point x="496" y="47"/>
      <point x="496" y="212" type="curve" smooth="yes"/>
      <point x="496" y="371"/>
      <point x="404" y="429"/>
      <point x="272" y="429" type="curve" smooth="yes"/>
      <point x="249" y="429"/>
      <point x="224" y="429"/>
      <point x="208" y="426" type="curve"/>
      <point x="208" y="693" type="line"/>
      <point x="11" y="693" type="line"/>
      <point x="11" y="637" type="line"/>
      <point x="143" y="637" type="line"/>
      <point x="143" y="8" type="line"/>
      <point x="179" y="-2"/>
      <point x="221" y="-7"/>
    </contour>
    <contour>
      <point x="269" y="52" type="curve" smooth="yes"/>
      <point x="261" y="52"/>
      <point x="229" y="53"/>
      <point x="208" y="56" type="curve"/>
      <point x="208" y="368" type="line"/>
      <point x="226" y="369"/>
      <point x="255" y="370"/>
      <point x="259" y="370" type="curve" smooth="yes"/>
      <point x="384" y="368"/>
      <point x="428" y="313"/>
      <point x="428" y="212" type="curve" smooth="yes"/>
      <point x="428" y="107"/>
      <point x="388" y="52"/>
    </contour>
  </outline>
</glyph>
<glyph name="afii10048" format="2">
  <advance width="811"/>
  <unicode hex="042E"/>
  <anchor x="406" y="693" name="top"/>
  <outline>
    <contour>
      <point x="517" y="-14" type="curve" smooth="yes"/>
      <point x="698" y="-14"/>
      <point x="752" y="154"/>
      <point x="752" y="347" type="curve" smooth="yes"/>
      <point x="752" y="563"/>
      <point x="679" y="708"/>
      <point x="517" y="708" type="curve" smooth="yes"/>
      <point x="366" y="708"/>
      <point x="288" y="582"/>
      <point x="282" y="390" type="curve"/>
      <point x="152" y="390" type="line"/>
      <point x="152" y="693" type="line"/>
      <point x="87" y="693" type="line"/>
      <point x="87" y="0" type="line"/>
      <point x="152" y="0" type="line"/>
      <point x="152" y="331" type="line"/>
      <point x="280" y="331" type="line"/>
      <point x="282" y="151"/>
      <point x="335" y="-14"/>
    </contour>
    <contour>
      <point x="516" y="43" type="curve" smooth="yes"/>
      <point x="400" y="43"/>
      <point x="347" y="166"/>
      <point x="347" y="346" type="curve" smooth="yes"/>
      <point x="347" y="528"/>
      <point x="400" y="651"/>
      <point x="516" y="651" type="curve" smooth="yes"/>
      <point x="633" y="651"/>
      <point x="683" y="528"/>
      <point x="683" y="347" type="curve" smooth="yes"/>
      <point x="683" y="166"/>
      <point x="633" y="43"/>
    </contour>
  </outline>
</glyph>
<glyph name="afii10066" format="2">
  <advance width="462"/>
  <unicode hex="0431"/>
  <outline>
    <contour>
      <point x="241" y="-12" type="curve" smooth="yes"/>
      <point x="331" y="-12"/>
      <point x="411" y="44"/>
      <point x="411" y="240" type="curve" smooth="yes"/>
      <point x="411" y="427"/>
      <point x="342" y="488"/>
      <point x="249" y="488" type="curve" smooth="yes"/>
      <point x="196" y="488"/>
      <point x="161" y="468"/>
      <point x="131" y="445" type="curve"/>
      <point x="140" y="581"/>
      <point x="172" y="662"/>
      <point x="280" y="694" type="curve" smooth="yes"/>
      <point x="296" y="704"/>
      <point x="336" y="708"/>
      <point x="382" y="720" type="curve"/>
      <point x="369" y="776" type="line"/>
      <point x="338" y="766"/>
      <point x="288" y="761"/>
      <point x="276" y="753" type="curve" smooth="yes"/>
      <point x="72" y="700"/>
      <point x="65" y="523"/>
      <point x="65" y="324" type="curve" smooth="yes"/>
      <point x="65" y="78"/>
      <point x="135" y="-12"/>
    </contour>
    <contour>
      <point x="245" y="42" type="curve" smooth="yes"/>
      <point x="177" y="42"/>
      <point x="128" y="109"/>
      <point x="128" y="330" type="curve" smooth="yes"/>
      <point x="128" y="347"/>
      <point x="128" y="358"/>
      <point x="129" y="380" type="curve"/>
      <point x="163" y="418"/>
      <point x="196" y="435"/>
      <point x="248" y="435" type="curve" smooth="yes"/>
      <point x="298" y="435"/>
      <point x="347" y="392"/>
      <point x="347" y="241" type="curve" smooth="yes"/>
      <point x="347" y="79"/>
      <point x="300" y="42"/>
    </contour>
  </outline>
</glyph>
<glyph name="afii10086" format="2">
  <advance width="574"/>
  <unicode hex="0444"/>
  <outline>
    <contour>
      <point x="260" y="-183" type="line"/>
      <point x="314" y="-183" type="line"/>
      <point x="314" y="-6" type="line"/>
      <point x="477" y="16"/>
      <point x="532" y="138"/>
      <point x="532" y="259" type="curve" smooth="yes"/>
      <point x="532" y="380"/>
      <point x="477" y="501"/>
      <point x="314" y="524" type="curve"/>
      <point x="314" y="776" type="line"/>
      <point x="260" y="764" type="line"/>
      <point x="260" y="524" type="line"/>
      <point x="98" y="501"/>
      <point x="41" y="380"/>
      <point x="41" y="259" type="curve" smooth="yes"/>
      <point x="41" y="138"/>
      <point x="98" y="16"/>
      <point x="260" y="-6" type="curve"/>
    </contour>
    <contour>
      <point x="260" y="51" type="line"/>
      <point x="149" y="72"/>
      <point x="103" y="156"/>
      <point x="103" y="264" type="curve" smooth="yes"/>
      <point x="103" y="370"/>
      <point x="149" y="448"/>
      <point x="260" y="466" type="curve"/>
    </contour>
    <contour>
      <point x="314" y="50" type="curve"/>
      <point x="314" y="467" type="line"/>
      <point x="426" y="449"/>
      <point x="471" y="370"/>
      <point x="471" y="264" type="curve" smooth="yes"/>
      <point x="471" y="156"/>
      <point x="426" y="71"/>
    </contour>
  </outline>
</glyph>
<glyph name="afii10090" format="2">
  <advance width="670"/>
  <unicode hex="0448"/>
  <outline>
    <contour>
      <point x="83" y="0" type="line"/>
      <point x="586" y="0" type="line"/>
      <point x="586" y="522" type="line"/>
      <point x="525" y="522" type="line"/>
      <point x="525" y="54" type="line"/>
      <point x="365" y="54" type="line"/>
      <point x="365" y="522" type="line"/>
      <point x="304" y="522" type="line"/>
      <point x="304" y="54" type="line"/>
      <point x="144" y="54" type="line"/>
      <point x="144" y="522" type="line"/>
      <point x="83" y="522" type="line"/>
    </contour>
  </outline>
</glyph>
<glyph name="afii10094" format="2">
  <advance width="415"/>
  <unicode hex="044C"/>
  <outline>
    <contour>
      <point x="198" y="-11" type="curve" smooth="yes"/>
      <point x="322" y="-11"/>
      <point x="388" y="44"/>
      <point x="388" y="159" type="curve" smooth="yes"/>
      <point x="388" y="257"/>
      <point x="336" y="330"/>
      <point x="214" y="330" type="curve" smooth="yes"/>
      <point x="197" y="330"/>
      <point x="173" y="329"/>
      <point x="144" y="320" type="curve"/>
      <point x="144" y="522" type="line"/>
      <point x="83" y="522" type="line"/>
      <point x="83" y="7" type="line"/>
      <point x="118" y="-3"/>
      <point x="168" y="-11"/>
    </contour>
    <contour>
      <point x="204" y="42" type="curve" smooth="yes"/>
      <point x="193" y="42"/>
      <point x="173" y="43"/>
      <point x="144" y="52" type="curve"/>
      <point x="144" y="266" type="line"/>
      <point x="164" y="272"/>
      <point x="183" y="276"/>
      <point x="208" y="276" type="curve" smooth="yes"/>
      <point x="306" y="276"/>
      <point x="324" y="221"/>
      <point x="324" y="160" type="curve" smooth="yes"/>
      <point x="324" y="83"/>
      <point x="288" y="42"/>
    </contour>
  </outline>
</glyph>
<glyph name="afii10096" format="2">
  <advance width="629"/>
  <unicode hex="044E"/>
  <anchor x="315" y="517" name="top"/>
  <outline>
    <contour>
      <point x="405" y="-9" type="curve" smooth="yes"/>
      <point x="528" y="-9"/>
      <point x="577" y="104"/>
      <point x="577" y="263" type="curve" smooth="yes"/>
      <point x="577" y="421"/>
      <point x="528" y="535"/>
      <point x="405" y="535" type="curve" smooth="yes"/>
      <point x="293" y="535"/>
      <point x="240" y="438"/>
      <point x="235" y="298" type="curve"/>
      <point x="144" y="298" type="line"/>
      <point x="144" y="517" type="line"/>
      <point x="83" y="517" type="line"/>
      <point x="83" y="0" type="line"/>
      <point x="144" y="0" type="line"/>
      <point x="144" y="238" type="line"/>
      <point x="236" y="238" type="line"/>
      <point x="240" y="92"/>
      <point x="290" y="-9"/>
    </contour>
    <contour>
      <point x="404" y="46" type="curve" smooth="yes"/>
      <point x="329" y="46"/>
      <point x="295" y="133"/>
      <point x="295" y="263" type="curve" smooth="yes"/>
      <point x="295" y="392"/>
      <point x="329" y="480"/>
      <point x="404" y="480" type="curve" smooth="yes"/>
      <point x="481" y="480"/>
      <point x="514" y="392"/>
      <point x="514" y="263" type="curve" smooth="yes"/>
      <point x="514" y="133"/>
      <point x="481" y="46"/>
    </contour>
  </outline>
</glyph>
<glyph name="afii10101" format="2">
  <advance width="367"/>
  <unicode hex="0454"/>
  <outline>
    <contour>
      <point x="240" y="-10" type="curve" smooth="yes"/>
      <point x="265" y="-10"/>
      <point x="309" y="0"/>
      <point x="336" y="16" type="curve"/>
      <point x="321" y="61" type="line"/>
      <point x="283" y="45"/>
      <point x="261" y="44"/>
      <point x="243" y="44" type="curve" smooth="yes"/>
      <point x="164" y="44"/>
      <point x="116" y="120"/>
      <point x="116" y="243" type="curve"/>
      <point x="286" y="243" type="line"/>
      <point x="286" y="295" type="line"/>
      <point x="115" y="295" type="line"/>
      <point x="120" y="440"/>
      <point x="168" y="481"/>
      <point x="246" y="481" type="curve" smooth="yes"/>
      <point x="256" y="481"/>
      <point x="286" y="478"/>
      <point x="319" y="461" type="curve"/>
      <point x="336" y="513" type="line"/>
      <point x="300" y="528"/>
      <point x="280" y="535"/>
      <point x="246" y="535" type="curve" smooth="yes"/>
      <point x="131" y="535"/>
      <point x="52" y="464"/>
      <point x="52" y="269" type="curve" smooth="yes"/>
      <point x="52" y="100"/>
      <point x="114" y="-10"/>
    </contour>
  </outline>
</glyph>
<glyph name="afii10193" format="2">
  <advance width="475"/>
  <unicode hex="045F"/>
  <outline>
    <contour>
      <point x="207" y="-145" type="line"/>
      <point x="268" y="-145" type="line"/>
      <point x="268" y="0" type="line"/>
      <point x="392" y="0" type="line"/>
      <point x="392" y="522" type="line"/>
      <point x="331" y="522" type="line"/>
      <point x="331" y="54" type="line"/>
      <point x="144" y="54" type="line"/>
      <point x="144" y="522" type="line"/>
      <point x="83" y="522" type="line"/>
      <point x="83" y="0" type="line"/>
      <point x="207" y="0" type="line"/>
    </contour>
  </outline>
</glyph>
<glyph name="uni0462" format="2">
  <advance width="544"/>
  <unicode hex="0462"/>
  <outline>
    <contour>
      <point x="283" y="-7" type="curve" smooth="yes"/>
      <point x="418" y="-7"/>
      <point x="505" y="55"/>
      <point x="505" y="209" type="curve" smooth="yes"/>
      <point x="505" y="362"/>
      <point x="432" y="428"/>
      <point x="265" y="428" type="curve" smooth="yes"/>
      <point x="250" y="428"/>
      <point x="233" y="428"/>
      <point x="217" y="428" type="curve"/>
      <point x="217" y="599" type="line"/>
      <point x="360" y="599" type="line"/>
      <point x="360" y="646" type="line"/>
      <point x="217" y="646" type="line"/>
      <point x="217" y="738" type="line"/>
      <point x="152" y="738" type="line"/>
      <point x="152" y="646" type="line"/>
      <point x="25" y="646" type="line"/>
      <point x="25" y="599" type="line"/>
      <point x="152" y="599" type="line"/>
      <point x="152" y="12" type="line"/>
      <point x="190" y="0"/>
      <point x="243" y="-7"/>
    </contour>
    <contour>
      <point x="280" y="52" type="curve" smooth="yes"/>
      <point x="265" y="52"/>
      <point x="242" y="53"/>
      <point x="217" y="60" type="curve"/>
      <point x="217" y="368" type="line"/>
      <point x="236" y="368"/>
      <point x="258" y="368"/>
      <point x="277" y="368" type="curve" smooth="yes"/>
      <point x="396" y="368"/>
      <point x="436" y="310"/>
      <point x="436" y="213" type="curve" smooth="yes"/>
      <point x="436" y="107"/>
      <point x="398" y="52"/>
    </contour>
  </outline>
</glyph>
<glyph name="uni0474" format="2">
  <advance width="546"/>
  <unicode hex="0474"/>
  <anchor x="274" y="693" name="top"/>
  <outline>
    <contour>
      <point x="187" y="0" type="curve"/>
      <point x="255" y="0" type="line"/>
      <point x="300" y="128"/>
      <point x="344" y="304"/>
      <point x="384" y="526" type="curve" smooth="yes"/>
      <point x="399" y="601"/>
      <point x="418" y="650"/>
      <point x="474" y="650" type="curve" smooth="yes"/>
      <point x="491" y="650"/>
      <point x="508" y="645"/>
      <point x="530" y="630" type="curve"/>
      <point x="553" y="680" type="line"/>
      <point x="515" y="709"/>
      <point x="491" y="707"/>
      <point x="466" y="707" type="curve" smooth="yes"/>
      <point x="374" y="707"/>
      <point x="342" y="635"/>
      <point x="324" y="523" type="curve" smooth="yes"/>
      <point x="299" y="364"/>
      <point x="268" y="230"/>
      <point x="221" y="81" type="curve"/>
      <point x="160" y="277"/>
      <point x="110" y="471"/>
      <point x="76" y="693" type="curve"/>
      <point x="11" y="693" type="line"/>
      <point x="32" y="489"/>
      <point x="102" y="239"/>
    </contour>
  </outline>
</glyph>
<glyph name="uni0475" format="2">
  <advance width="461"/>
  <unicode hex="0475"/>
  <anchor x="231" y="517" name="top"/>
  <outline>
    <contour>
      <point x="148" y="0" type="curve"/>
      <point x="211" y="0" type="line"/>
      <point x="232" y="53"/>
      <point x="283" y="228"/>
      <point x="320" y="390" type="curve" smooth="yes"/>
      <point x="339" y="460"/>
      <point x="357" y="474"/>
      <point x="385" y="474" type="curve" smooth="yes"/>
      <point x="396" y="474"/>
      <point x="419" y="466"/>
      <point x="438" y="455" type="curve"/>
      <point x="460" y="502" type="line"/>
      <point x="435" y="518"/>
      <point x="405" y="527"/>
      <point x="374" y="527" type="curve" smooth="yes"/>
      <point x="328" y="527"/>
      <point x="283" y="495"/>
      <point x="263" y="400" type="curve" smooth="yes"/>
      <point x="231" y="250"/>
      <point x="196" y="119"/>
      <point x="182" y="73" type="curve"/>
      <point x="142" y="198"/>
      <point x="100" y="389"/>
      <point x="78" y="522" type="curve"/>
      <point x="15" y="522" type="line"/>
      <point x="41" y="363"/>
      <point x="101" y="122"/>
    </contour>
  </outline>
</glyph>
<glyph name="uni048C" format="2">
  <advance width="480"/>
  <unicode hex="048C"/>
  <outline>
    <contour>
      <point x="221" y="-7" type="curve" smooth="yes"/>
      <point x="348" y="-7"/>
      <point x="442" y="47"/>
      <point x="442" y="212" type="curve" smooth="yes"/>
      <point x="442" y="371"/>
      <point x="350" y="429"/>
      <point x="218" y="429" type="curve" smooth="yes"/>
      <point x="195" y="429"/>
      <point x="170" y="429"/>
      <point x="154" y="426" type="curve"/>
      <point x="154" y="555" type="line"/>
      <point x="268" y="555" type="line"/>
      <point x="268" y="605" type="line"/>
      <point x="154" y="605" type="line"/>
      <point x="154" y="693" type="line"/>
      <point x="89" y="693" type="line"/>
      <point x="89" y="605" type="line"/>
      <point x="21" y="605" type="line"/>
      <point x="21" y="555" type="line"/>
      <point x="89" y="555" type="line"/>
      <point x="89" y="8" type="line"/>
      <point x="125" y="-2"/>
      <point x="167" y="-7"/>
    </contour>
    <contour>
      <point x="215" y="52" type="curve" smooth="yes"/>
      <point x="207" y="52"/>
      <point x="175" y="53"/>
      <point x="154" y="56" type="curve"/>
      <point x="154" y="368" type="line"/>
      <point x="172" y="369"/>
      <point x="201" y="370"/>
      <point x="205" y="370" type="curve" smooth="yes"/>
      <point x="330" y="368"/>
      <point x="374" y="313"/>
      <point x="374" y="212" type="curve" smooth="yes"/>
      <point x="374" y="107"/>
      <point x="334" y="52"/>
    </contour>
  </outline>
</glyph>
<glyph name="uni048D" format="2">
  <advance width="409"/>
  <unicode hex="048D"/>
  <outline>
    <contour>
      <point x="201" y="-11" type="curve" smooth="yes"/>
      <point x="322" y="-11"/>
      <point x="386" y="44"/>
      <point x="386" y="161" type="curve" smooth="yes"/>
      <point x="386" y="261"/>
      <point x="337" y="333"/>
      <point x="217" y="333" type="curve" smooth="yes"/>
      <point x="200" y="333"/>
      <point x="178" y="332"/>
      <point x="148" y="324" type="curve"/>
      <point x="148" y="424" type="line"/>
      <point x="280" y="424" type="line"/>
      <point x="280" y="472" type="line"/>
      <point x="148" y="472" type="line"/>
      <point x="148" y="552" type="line"/>
      <point x="87" y="552" type="line"/>
      <point x="87" y="472" type="line"/>
      <point x="19" y="472" type="line"/>
      <point x="19" y="424" type="line"/>
      <point x="87" y="424" type="line"/>
      <point x="87" y="7" type="line"/>
      <point x="120" y="-3"/>
      <point x="171" y="-11"/>
    </contour>
    <contour>
      <point x="206" y="45" type="curve" smooth="yes"/>
      <point x="195" y="45"/>
      <point x="176" y="46"/>
      <point x="148" y="55" type="curve"/>
      <point x="148" y="268" type="line"/>
      <point x="167" y="273"/>
      <point x="186" y="279"/>
      <point x="210" y="279" type="curve" smooth="yes"/>
      <point x="306" y="279"/>
      <point x="322" y="224"/>
      <point x="322" y="163" type="curve" smooth="yes"/>
      <point x="322" y="85"/>
      <point x="288" y="45"/>
    </contour>
  </outline>
</glyph>
<glyph name="uni0494" format="2">
  <advance width="484"/>
  <unicode hex="0494"/>
  <outline>
    <contour>
      <point x="237" y="-186" type="curve" smooth="yes"/>
      <point x="373" y="-186"/>
      <point x="445" y="-88"/>
      <point x="445" y="129" type="curve" smooth="yes"/>
      <point x="445" y="332"/>
      <point x="373" y="432"/>
      <point x="238" y="432" type="curve" smooth="yes"/>
      <point x="216" y="432"/>
      <point x="199" y="431"/>
      <point x="152" y="408" type="curve"/>
      <point x="152" y="636" type="line"/>
      <point x="374" y="636" type="line"/>
      <point x="374" y="693" type="line"/>
      <point x="87" y="693" type="line"/>
      <point x="87" y="0" type="line"/>
      <point x="152" y="0" type="line"/>
      <point x="152" y="350" type="line"/>
      <point x="192" y="370"/>
      <point x="214" y="373"/>
      <point x="233" y="373" type="curve" smooth="yes"/>
      <point x="322" y="373"/>
      <point x="376" y="314"/>
      <point x="376" y="131" type="curve" smooth="yes"/>
      <point x="376" y="-19"/>
      <point x="359" y="-128"/>
      <point x="232" y="-128" type="curve" smooth="yes"/>
      <point x="231" y="-128"/>
      <point x="227" y="-128"/>
      <point x="211" y="-127" type="curve"/>
      <point x="212" y="-184" type="line"/>
      <point x="227" y="-186"/>
      <point x="233" y="-186"/>
    </contour>
  </outline>
</glyph>
<glyph name="uni0495" format="2">
  <advance width="429"/>
  <unicode hex="0495"/>
  <outline>
    <contour>
      <point x="222" y="-185" type="curve" smooth="yes"/>
      <point x="332" y="-185"/>
      <point x="396" y="-99"/>
      <point x="396" y="72" type="curve" smooth="yes"/>
      <point x="396" y="257"/>
      <point x="311" y="315"/>
      <point x="225" y="315" type="curve" smooth="yes"/>
      <point x="198" y="315"/>
      <point x="175" y="309"/>
      <point x="144" y="297" type="curve"/>
      <point x="144" y="468" type="line"/>
      <point x="318" y="468" type="line"/>
      <point x="318" y="522" type="line"/>
      <point x="83" y="522" type="line"/>
      <point x="83" y="0" type="line"/>
      <point x="144" y="0" type="line"/>
      <point x="144" y="243" type="line"/>
      <point x="192" y="261"/>
      <point x="209" y="263"/>
      <point x="225" y="263" type="curve" smooth="yes"/>
      <point x="293" y="263"/>
      <point x="333" y="197"/>
      <point x="333" y="71" type="curve" smooth="yes"/>
      <point x="333" y="-9"/>
      <point x="324" y="-133"/>
      <point x="223" y="-133" type="curve" smooth="yes"/>
      <point x="219" y="-133"/>
      <point x="216" y="-133"/>
      <point x="206" y="-133" type="curve"/>
      <point x="207" y="-184" type="line"/>
      <point x="216" y="-185"/>
      <point x="219" y="-185"/>
    </contour>
  </outline>
</glyph>
<glyph name="uni0497" format="2">
  <advance width="566"/>
  <unicode hex="0497"/>
  <outline>
    <contour>
      <point x="495" y="-145" type="line"/>
      <point x="556" y="-145" type="line"/>
      <point x="556" y="50" type="line"/>
      <point x="496" y="50" type="line"/>
      <point x="450" y="144"/>
      <point x="393" y="231"/>
      <point x="349" y="282" type="curve"/>
      <point x="397" y="347"/>
      <point x="418" y="398"/>
      <point x="491" y="522" type="curve"/>
      <point x="427" y="522" type="line"/>
      <point x="383" y="445"/>
      <point x="335" y="356"/>
      <point x="297" y="303" type="curve"/>
      <point x="297" y="522" type="line"/>
      <point x="234" y="522" type="line"/>
      <point x="234" y="303" type="line"/>
      <point x="196" y="354"/>
      <point x="147" y="442"/>
      <point x="103" y="522" type="curve"/>
      <point x="40" y="522" type="line"/>
      <point x="111" y="399"/>
      <point x="131" y="348"/>
      <point x="180" y="282" type="curve"/>
      <point x="130" y="221"/>
      <point x="59" y="103"/>
      <point x="17" y="0" type="curve"/>
      <point x="83" y="0" type="line"/>
      <point x="130" y="103"/>
      <point x="180" y="197"/>
      <point x="234" y="260" type="curve"/>
      <point x="234" y="0" type="line"/>
      <point x="297" y="0" type="line"/>
      <point x="297" y="260" type="line"/>
      <point x="351" y="197"/>
      <point x="399" y="103"/>
      <point x="447" y="0" type="curve"/>
      <point x="495" y="0" type="line"/>
    </contour>
  </outline>
</glyph>
<glyph name="uni0498" format="2">
  <advance width="393"/>
  <unicode hex="0498"/>
  <outline>
    <contour>
      <point x="146" y="-188" type="curve" smooth="yes"/>
      <point x="184" y="-188"/>
      <point x="243" y="-170"/>
      <point x="243" y="-110" type="curve" smooth="yes"/>
      <point x="243" y="-83"/>
      <point x="231" y="-55"/>
      <point x="189" y="-40" type="curve"/>
      <point x="196" y="-25"/>
      <point x="201" y="-13"/>
      <point x="205" y="-5" type="curve"/>
      <point x="294" y="14"/>
      <point x="354" y="96"/>
      <point x="354" y="197" type="curve" smooth="yes"/>
      <point x="354" y="279"/>
      <point x="319" y="345"/>
      <point x="231" y="369" type="curve"/>
      <point x="294" y="396"/>
      <point x="332" y="449"/>
      <point x="332" y="536" type="curve" smooth="yes"/>
      <point x="332" y="625"/>
      <point x="266" y="704"/>
      <point x="161" y="704" type="curve" smooth="yes"/>
      <point x="127" y="704"/>
      <point x="84" y="695"/>
      <point x="34" y="667" type="curve"/>
      <point x="52" y="618" type="line"/>
      <point x="83" y="634"/>
      <point x="124" y="648"/>
      <point x="156" y="648" type="curve" smooth="yes"/>
      <point x="223" y="648"/>
      <point x="272" y="615"/>
      <point x="272" y="530" type="curve" smooth="yes"/>
      <point x="272" y="453"/>
      <point x="243" y="395"/>
      <point x="129" y="395" type="curve" smooth="yes"/>
      <point x="88" y="395" type="line"/>
      <point x="88" y="343" type="line"/>
      <point x="139" y="343" type="line" smooth="yes"/>
      <point x="256" y="343"/>
      <point x="295" y="275"/>
      <point x="295" y="198" type="curve" smooth="yes"/>
      <point x="295" y="104"/>
      <point x="240" y="44"/>
      <point x="156" y="44" type="curve" smooth="yes"/>
      <point x="129" y="44"/>
      <point x="100" y="42"/>
      <point x="34" y="75" type="curve"/>
      <point x="19" y="25" type="line"/>
      <point x="77" y="-7"/>
      <point x="121" y="-9"/>
      <point x="152" y="-11" type="curve"/>
      <point x="144" y="-26"/>
      <point x="138" y="-44"/>
      <point x="131" y="-62" type="curve"/>
      <point x="179" y="-70"/>
      <point x="190" y="-84"/>
      <point x="190" y="-104" type="curve" smooth="yes"/>
      <point x="190" y="-132"/>
      <point x="166" y="-141"/>
      <point x="132" y="-141" type="curve" smooth="yes"/>
      <point x="124" y="-141"/>
      <point x="107" y="-137"/>
      <point x="94" y="-135" type="curve"/>
      <point x="86" y="-178" type="line"/>
      <point x="113" y="-187"/>
      <point x="129" y="-188"/>
    </contour>
  </outline>
</glyph>
<glyph name="uni0499" format="2">
  <advance width="355"/>
  <unicode hex="0499"/>
  <outline>
    <contour>
      <point x="129" y="-188" type="curve" smooth="yes"/>
      <point x="168" y="-188"/>
      <point x="227" y="-170"/>
      <point x="227" y="-110" type="curve" smooth="yes"/>
      <point x="227" y="-83"/>
      <point x="215" y="-55"/>
      <point x="173" y="-40" type="curve"/>
      <point x="178" y="-29"/>
      <point x="181" y="-20"/>
      <point x="185" y="-10" type="curve"/>
      <point x="260" y="1"/>
      <point x="312" y="54"/>
      <point x="312" y="141" type="curve" smooth="yes"/>
      <point x="312" y="204"/>
      <point x="273" y="257"/>
      <point x="206" y="278" type="curve"/>
      <point x="257" y="294"/>
      <point x="294" y="340"/>
      <point x="294" y="398" type="curve" smooth="yes"/>
      <point x="294" y="478"/>
      <point x="239" y="529"/>
      <point x="154" y="529" type="curve" smooth="yes"/>
      <point x="132" y="529"/>
      <point x="99" y="526"/>
      <point x="48" y="504" type="curve"/>
      <point x="61" y="453" type="line"/>
      <point x="107" y="474"/>
      <point x="145" y="473"/>
      <point x="146" y="473" type="curve" smooth="yes"/>
      <point x="214" y="473"/>
      <point x="234" y="437"/>
      <point x="234" y="386" type="curve" smooth="yes"/>
      <point x="234" y="350"/>
      <point x="215" y="299"/>
      <point x="102" y="299" type="curve" smooth="yes"/>
      <point x="88" y="299" type="line"/>
      <point x="88" y="252" type="line"/>
      <point x="105" y="252" type="line" smooth="yes"/>
      <point x="213" y="252"/>
      <point x="252" y="202"/>
      <point x="252" y="142" type="curve" smooth="yes"/>
      <point x="252" y="68"/>
      <point x="209" y="40"/>
      <point x="153" y="40" type="curve" smooth="yes"/>
      <point x="141" y="40"/>
      <point x="93" y="41"/>
      <point x="48" y="63" type="curve"/>
      <point x="39" y="15" type="line"/>
      <point x="89" y="-12"/>
      <point x="124" y="-11"/>
      <point x="135" y="-13" type="curve"/>
      <point x="128" y="-29"/>
      <point x="120" y="-45"/>
      <point x="114" y="-62" type="curve"/>
      <point x="163" y="-70"/>
      <point x="174" y="-84"/>
      <point x="174" y="-104" type="curve" smooth="yes"/>
      <point x="174" y="-132"/>
      <point x="149" y="-141"/>
      <point x="115" y="-141" type="curve" smooth="yes"/>
      <point x="107" y="-141"/>
      <point x="90" y="-137"/>
      <point x="77" y="-135" type="curve"/>
      <point x="69" y="-178" type="line"/>
      <point x="96" y="-187"/>
      <point x="113" y="-188"/>
    </contour>
  </outline>
</glyph>
<glyph name="uni049A" format="2">
  <advance width="522"/>
  <unicode hex="049A"/>
  <outline>
    <contour>
      <point x="443" y="-185" type="line"/>
      <point x="507" y="-185" type="line"/>
      <point x="507" y="56" type="line"/>
      <point x="449" y="56" type="line"/>
      <point x="362" y="198"/>
      <point x="274" y="300"/>
      <point x="212" y="363" type="curve"/>
      <point x="289" y="454"/>
      <point x="372" y="586"/>
      <point x="450" y="693" type="curve"/>
      <point x="383" y="693" type="line"/>
      <point x="325" y="609"/>
      <point x="232" y="471"/>
      <point x="152" y="384" type="curve"/>
      <point x="152" y="693" type="line"/>
      <point x="87" y="693" type="line"/>
      <point x="87" y="0" type="line"/>
      <point x="152" y="0" type="line"/>
      <point x="152" y="334" type="line"/>
      <point x="240" y="263"/>
      <point x="335" y="128"/>
      <point x="403" y="0" type="curve"/>
      <point x="443" y="0" type="line"/>
    </contour>
  </outline>
</glyph>
<glyph name="uni049D" format="2">
  <advance width="433"/>
  <unicode hex="049D"/>
  <outline>
    <contour>
      <point x="83" y="0" type="line"/>
      <point x="144" y="0" type="line"/>
      <point x="144" y="252" type="line"/>
      <point x="197" y="252" type="line"/>
      <point x="197" y="131" type="line"/>
      <point x="239" y="131" type="line"/>
      <point x="239" y="255" type="line"/>
      <point x="282" y="198"/>
      <point x="330" y="89"/>
      <point x="356" y="0" type="curve"/>
      <point x="416" y="0" type="line"/>
      <point x="391" y="91"/>
      <point x="339" y="215"/>
      <point x="286" y="281" type="curve"/>
      <point x="329" y="346"/>
      <point x="351" y="409"/>
      <point x="406" y="522" type="curve"/>
      <point x="341" y="522" type="line"/>
      <point x="306" y="450"/>
      <point x="271" y="365"/>
      <point x="239" y="308" type="curve"/>
      <point x="239" y="415" type="line"/>
      <point x="197" y="415" type="line"/>
      <point x="197" y="308" type="line"/>
      <point x="144" y="308" type="line"/>
      <point x="144" y="522" type="line"/>
      <point x="83" y="522" type="line"/>
    </contour>
  </outline>
</glyph>
<glyph name="uni04A9" format="2">
  <advance width="463"/>
  <unicode hex="04A9"/>
  <outline>
    <contour>
      <point x="411" y="-30" type="curve"/>
      <point x="439" y="14" type="line"/>
      <point x="442" y="24"/>
      <point x="404" y="33"/>
      <point x="377" y="45" type="curve"/>
      <point x="398" y="102"/>
      <point x="415" y="165"/>
      <point x="415" y="251" type="curve" smooth="yes"/>
      <point x="415" y="354"/>
      <point x="370" y="394"/>
      <point x="315" y="394" type="curve" smooth="yes"/>
      <point x="255" y="394"/>
      <point x="213" y="362"/>
      <point x="213" y="252" type="curve" smooth="yes"/>
      <point x="213" y="173"/>
      <point x="246" y="109"/>
      <point x="299" y="53" type="curve"/>
      <point x="226" y="13"/>
      <point x="112" y="49"/>
      <point x="112" y="244" type="curve" smooth="yes"/>
      <point x="112" y="384"/>
      <point x="142" y="484"/>
      <point x="252" y="484" type="curve" smooth="yes"/>
      <point x="268" y="484"/>
      <point x="293" y="479"/>
      <point x="305" y="473" type="curve"/>
      <point x="317" y="523" type="line"/>
      <point x="287" y="533"/>
      <point x="267" y="536"/>
      <point x="248" y="536" type="curve" smooth="yes"/>
      <point x="86" y="536"/>
      <point x="53" y="398"/>
      <point x="53" y="248" type="curve" smooth="yes"/>
      <point x="53" y="35"/>
      <point x="178" y="-60"/>
      <point x="334" y="13" type="curve"/>
      <point x="369" y="-5"/>
      <point x="409" y="-19"/>
    </contour>
    <contour>
      <point x="346" y="78" type="curve"/>
      <point x="300" y="121"/>
      <point x="270" y="181"/>
      <point x="270" y="262" type="curve" smooth="yes"/>
      <point x="270" y="326"/>
      <point x="287" y="339"/>
      <point x="315" y="339" type="curve" smooth="yes"/>
      <point x="342" y="339"/>
      <point x="360" y="324"/>
      <point x="360" y="252" type="curve" smooth="yes"/>
      <point x="360" y="188"/>
      <point x="365" y="128"/>
    </contour>
  </outline>
</glyph>
<glyph name="uni04C3" format="2">
  <advance width="507"/>
  <unicode hex="04C3"/>
  <outline>
    <contour>
      <point x="251" y="-185" type="curve" smooth="yes"/>
      <point x="370" y="-185"/>
      <point x="452" y="-88"/>
      <point x="452" y="106" type="curve" smooth="yes"/>
      <point x="452" y="273"/>
      <point x="377" y="386"/>
      <point x="224" y="383" type="curve"/>
      <point x="292" y="466"/>
      <point x="384" y="592"/>
      <point x="456" y="693" type="curve"/>
      <point x="387" y="693" type="line"/>
      <point x="315" y="596"/>
      <point x="220" y="465"/>
      <point x="152" y="386" type="curve"/>
      <point x="152" y="693" type="line"/>
      <point x="87" y="693" type="line"/>
      <point x="87" y="0" type="line"/>
      <point x="152" y="0" type="line"/>
      <point x="152" y="331" type="line"/>
      <point x="169" y="333"/>
      <point x="194" y="336"/>
      <point x="220" y="336" type="curve" smooth="yes"/>
      <point x="348" y="336"/>
      <point x="382" y="248"/>
      <point x="382" y="115" type="curve" smooth="yes"/>
      <point x="382" y="-39"/>
      <point x="348" y="-127"/>
      <point x="240" y="-127" type="curve" smooth="yes"/>
      <point x="240" y="-127"/>
      <point x="225" y="-128"/>
      <point x="215" y="-126" type="curve"/>
      <point x="216" y="-181" type="line"/>
      <point x="230" y="-184"/>
      <point x="239" y="-185"/>
    </contour>
  </outline>
</glyph>
<glyph name="uni04C7" format="2">
  <advance width="566"/>
  <unicode hex="04C7"/>
  <outline>
    <contour>
      <point x="359" y="-186" type="curve" smooth="yes"/>
      <point x="436" y="-186"/>
      <point x="479" y="-134"/>
      <point x="479" y="-50" type="curve" smooth="yes"/>
      <point x="479" y="693" type="line"/>
      <point x="414" y="693" type="line"/>
      <point x="414" y="390" type="line"/>
      <point x="152" y="390" type="line"/>
      <point x="152" y="693" type="line"/>
      <point x="87" y="693" type="line"/>
      <point x="87" y="0" type="line"/>
      <point x="152" y="0" type="line"/>
      <point x="152" y="333" type="line"/>
      <point x="414" y="333" type="line"/>
      <point x="414" y="-39" type="line" smooth="yes"/>
      <point x="414" y="-112"/>
      <point x="391" y="-128"/>
      <point x="353" y="-128" type="curve" smooth="yes"/>
      <point x="345" y="-128"/>
      <point x="328" y="-126"/>
      <point x="315" y="-123" type="curve"/>
      <point x="306" y="-177" type="line"/>
      <point x="323" y="-184"/>
      <point x="347" y="-186"/>
    </contour>
  </outline>
</glyph>
<glyph name="uni04C9" format="2">
  <advance width="565"/>
  <unicode hex="04C9"/>
  <outline>
    <contour>
      <point x="433" y="-195" type="line"/>
      <point x="510" y="-120"/>
      <point x="534" y="-31"/>
      <point x="533" y="57" type="curve"/>
      <point x="479" y="57" type="line"/>
      <point x="479" y="693" type="line"/>
      <point x="414" y="693" type="line"/>
      <point x="414" y="390" type="line"/>
      <point x="152" y="390" type="line"/>
      <point x="152" y="693" type="line"/>
      <point x="87" y="693" type="line"/>
      <point x="87" y="0" type="line"/>
      <point x="152" y="0" type="line"/>
      <point x="152" y="333" type="line"/>
      <point x="414" y="333" type="line"/>
      <point x="414" y="0" type="line"/>
      <point x="463" y="0" type="line"/>
      <point x="455" y="-58"/>
      <point x="439" y="-108"/>
      <point x="386" y="-161" type="curve"/>
    </contour>
  </outline>
</glyph>
<glyph name="uni04CA" format="2">
  <advance width="480"/>
  <unicode hex="04CA"/>
  <outline>
    <contour>
      <point x="362" y="-156" type="line"/>
      <point x="430" y="-92"/>
      <point x="446" y="-10"/>
      <point x="446" y="51" type="curve"/>
      <point x="406" y="51" type="line"/>
      <point x="406" y="522" type="line"/>
      <point x="345" y="522" type="line"/>
      <point x="345" y="297" type="line"/>
      <point x="143" y="297" type="line"/>
      <point x="143" y="522" type="line"/>
      <point x="82" y="522" type="line"/>
      <point x="82" y="0" type="line"/>
      <point x="143" y="0" type="line"/>
      <point x="143" y="244" type="line"/>
      <point x="345" y="244" type="line"/>
      <point x="345" y="0" type="line"/>
      <point x="384" y="0" type="line"/>
      <point x="373" y="-45"/>
      <point x="366" y="-74"/>
      <point x="319" y="-124" type="curve"/>
    </contour>
  </outline>
</glyph>
<glyph name="uni04CD" format="2">
  <advance width="735"/>
  <unicode hex="04CD"/>
  <outline>
    <contour>
      <point x="596" y="-195" type="line"/>
      <point x="673" y="-120"/>
      <point x="697" y="-31"/>
      <point x="696" y="57" type="curve"/>
      <point x="643" y="57" type="line"/>
      <point x="636" y="289"/>
      <point x="626" y="519"/>
      <point x="610" y="693" type="curve"/>
      <point x="544" y="693" type="line"/>
      <point x="488" y="565"/>
      <point x="419" y="374"/>
      <point x="360" y="186" type="curve"/>
      <point x="314" y="339"/>
      <point x="231" y="560"/>
      <point x="173" y="693" type="curve"/>
      <point x="108" y="693" type="line"/>
      <point x="89" y="487"/>
      <point x="82" y="248"/>
      <point x="74" y="0" type="curve"/>
      <point x="136" y="0" type="line"/>
      <point x="139" y="200"/>
      <point x="148" y="428"/>
      <point x="158" y="592" type="curve"/>
      <point x="227" y="432"/>
      <point x="259" y="330"/>
      <point x="329" y="99" type="curve"/>
      <point x="388" y="99" type="line"/>
      <point x="447" y="256"/>
      <point x="485" y="425"/>
      <point x="560" y="595" type="curve"/>
      <point x="572" y="433"/>
      <point x="578" y="199"/>
      <point x="583" y="0" type="curve"/>
      <point x="626" y="0" type="line"/>
      <point x="618" y="-58"/>
      <point x="602" y="-108"/>
      <point x="549" y="-161" type="curve"/>
    </contour>
  </outline>
</glyph>
<glyph name="uni04CE" format="2">
  <advance width="601"/>
  <unicode hex="04CE"/>
  <outline>
    <contour>
      <point x="486" y="-156" type="line"/>
      <point x="554" y="-92"/>
      <point x="570" y="-10"/>
      <point x="570" y="51" type="curve"/>
      <point x="523" y="51" type="line"/>
      <point x="517" y="226"/>
      <point x="508" y="364"/>
      <point x="495" y="522" type="curve"/>
      <point x="426" y="522" type="line"/>
      <point x="383" y="410"/>
      <point x="316" y="243"/>
      <point x="300" y="157" type="curve"/>
      <point x="291" y="233"/>
      <point x="228" y="401"/>
      <point x="177" y="522" type="curve"/>
      <point x="107" y="522" type="line"/>
      <point x="93" y="365"/>
      <point x="83" y="181"/>
      <point x="79" y="0" type="curve"/>
      <point x="137" y="0" type="line"/>
      <point x="139" y="141"/>
      <point x="145" y="333"/>
      <point x="152" y="453" type="curve"/>
      <point x="185" y="363"/>
      <point x="201" y="278"/>
      <point x="275" y="72" type="curve"/>
      <point x="326" y="72" type="line"/>
      <point x="400" y="271"/>
      <point x="417" y="355"/>
      <point x="451" y="445" type="curve"/>
      <point x="461" y="304"/>
      <point x="462" y="161"/>
      <point x="467" y="0" type="curve"/>
      <point x="508" y="0" type="line"/>
      <point x="497" y="-45"/>
      <point x="490" y="-74"/>
      <point x="443" y="-124" type="curve"/>
    </contour>
  </outline>
</glyph>
<glyph name="uni04E9" format="2">
  <advance width="457"/>
  <unicode hex="04E9"/>
  <anchor x="229" y="517" name="top"/>
  <outline>
    <contour>
      <point x="229" y="-9" type="curve" smooth="yes"/>
      <point x="352" y="-9"/>
      <point x="404" y="103"/>
      <point x="404" y="263" type="curve" smooth="yes"/>
      <point x="404" y="423"/>
      <point x="352" y="535"/>
      <point x="229" y="535" type="curve" smooth="yes"/>
      <point x="105" y="535"/>
      <point x="52" y="423"/>
      <point x="52" y="263" type="curve" smooth="yes"/>
      <point x="52" y="103"/>
      <point x="105" y="-9"/>
    </contour>
    <contour>
      <point x="229" y="46" type="curve" smooth="yes"/>
      <point x="152" y="46"/>
      <point x="117" y="126"/>
      <point x="115" y="244" type="curve"/>
      <point x="341" y="244" type="line"/>
      <point x="340" y="126"/>
      <point x="306" y="46"/>
    </contour>
    <contour>
      <point x="115" y="289" type="line"/>
      <point x="118" y="405"/>
      <point x="156" y="480"/>
      <point x="229" y="480" type="curve" smooth="yes"/>
      <point x="304" y="480"/>
      <point x="338" y="403"/>
      <point x="341" y="289" type="curve"/>
    </contour>
  </outline>
</glyph>
<glyph name="uni1FBF" format="2">
  <advance width="314"/>
  <unicode hex="1FBF"/>
  <anchor x="161" y="776" name="_top"/>
  <anchor x="161" y="771" name="top"/>
  <outline>
    <contour>
      <point x="127" y="582" type="line"/>
      <point x="175" y="621"/>
      <point x="220" y="673"/>
      <point x="220" y="726" type="curve" smooth="yes"/>
      <point x="220" y="755"/>
      <point x="201" y="771"/>
      <point x="179" y="771" type="curve" smooth="yes"/>
      <point x="159" y="771"/>
      <point x="140" y="756"/>
      <point x="140" y="732" type="curve" smooth="yes"/>
      <point x="140" y="715"/>
      <point x="148" y="698"/>
      <point x="169" y="693" type="curve"/>
      <point x="163" y="671"/>
      <point x="128" y="631"/>
      <point x="100" y="606" type="curve"/>
    </contour>
  </outline>
</glyph>
<glyph name="uni1FCD" format="2">
  <advance width="314"/>
  <unicode hex="1FCD"/>
  <anchor x="161" y="776" name="_top"/>
  <anchor x="161" y="771" name="top"/>
  <outline>
    <contour>
      <point x="266" y="580" type="line"/>
      <point x="296" y="596" type="line"/>
      <point x="218" y="769" type="line"/>
      <point x="173" y="749" type="line"/>
    </contour>
    <contour>
      <point x="47" y="582" type="line"/>
      <point x="91" y="621"/>
      <point x="130" y="673"/>
      <point x="130" y="726" type="curve" smooth="yes"/>
      <point x="130" y="755"/>
      <point x="112" y="771"/>
      <point x="92" y="771" type="curve" smooth="yes"/>
      <point x="73" y="771"/>
      <point x="55" y="756"/>
      <point x="55" y="732" type="curve" smooth="yes"/>
      <point x="55" y="715"/>
      <point x="63" y="698"/>
      <point x="85" y="693" type="curve"/>
      <point x="80" y="671"/>
      <point x="51" y="631"/>
      <point x="25" y="606" type="curve"/>
    </contour>
  </outline>
</glyph>
<glyph name="uni1FCF" format="2">
  <advance width="314"/>
  <unicode hex="1FCF"/>
  <anchor x="157" y="776" name="_top"/>
  <anchor x="157" y="876" name="top"/>
  <outline>
    <contour>
      <point x="35" y="758" type="curve"/>
      <point x="78" y="758" type="line"/>
      <point x="84" y="824"/>
      <point x="122" y="836"/>
      <point x="156" y="836" type="curve" smooth="yes"/>
      <point x="191" y="836"/>
      <point x="229" y="824"/>
      <point x="235" y="758" type="curve"/>
      <point x="278" y="758" type="line"/>
      <point x="276" y="825"/>
      <point x="236" y="876"/>
      <point x="156" y="876" type="curve" smooth="yes"/>
      <point x="76" y="876"/>
      <point x="37" y="825"/>
    </contour>
    <contour>
      <point x="114" y="582" type="line"/>
      <point x="176" y="623"/>
      <point x="197" y="667"/>
      <point x="197" y="701" type="curve" smooth="yes"/>
      <point x="197" y="724"/>
      <point x="179" y="743"/>
      <point x="157" y="743" type="curve" smooth="yes"/>
      <point x="140" y="743"/>
      <point x="120" y="731"/>
      <point x="120" y="706" type="curve" smooth="yes"/>
      <point x="120" y="689"/>
      <point x="130" y="672"/>
      <point x="151" y="670" type="curve"/>
      <point x="142" y="651"/>
      <point x="116" y="622"/>
      <point x="90" y="603" type="curve"/>
    </contour>
  </outline>
</glyph>
<glyph name="sixsuperior" format="2">
  <advance width="280"/>
  <unicode hex="2076"/>
  <outline>
    <contour>
      <point x="143" y="299" type="curve" smooth="yes"/>
      <point x="203" y="299"/>
      <point x="252" y="331"/>
      <point x="252" y="422" type="curve" smooth="yes"/>
      <point x="252" y="513"/>
      <point x="198" y="548"/>
      <point x="157" y="548" type="curve" smooth="yes"/>
      <point x="131" y="548"/>
      <point x="108" y="541"/>
      <point x="92" y="533" type="curve"/>
      <point x="111" y="614"/>
      <point x="147" y="644"/>
      <point x="232" y="659" type="curve"/>
      <point x="222" y="699" type="line"/>
      <point x="120" y="688"/>
      <point x="35" y="623"/>
      <point x="35" y="470" type="curve" smooth="yes"/>
      <point x="35" y="355"/>
      <point x="73" y="299"/>
    </contour>
    <contour>
      <point x="145" y="347" type="curve" smooth="yes"/>
      <point x="113" y="347"/>
      <point x="87" y="379"/>
      <point x="87" y="470" type="curve" smooth="yes"/>
      <point x="87" y="482"/>
      <point x="87" y="485"/>
      <point x="87" y="485" type="curve"/>
      <point x="111" y="498"/>
      <point x="124" y="504"/>
      <point x="143" y="504" type="curve" smooth="yes"/>
      <point x="175" y="504"/>
      <point x="198" y="476"/>
      <point x="198" y="430" type="curve" smooth="yes"/>
      <point x="198" y="363"/>
      <point x="170" y="347"/>
    </contour>
  </outline>
</glyph>
<glyph name="eightsuperior" format="2">
  <advance width="280"/>
  <unicode hex="2078"/>
  <outline>
    <contour>
      <point x="138" y="299" type="curve" smooth="yes"/>
      <point x="192" y="299"/>
      <point x="245" y="340"/>
      <point x="245" y="398" type="curve" smooth="yes"/>
      <point x="245" y="454"/>
      <point x="209" y="481"/>
      <point x="177" y="499" type="curve"/>
      <point x="215" y="528"/>
      <point x="234" y="560"/>
      <point x="234" y="597" type="curve" smooth="yes"/>
      <point x="234" y="660"/>
      <point x="188" y="698"/>
      <point x="137" y="698" type="curve" smooth="yes"/>
      <point x="77" y="698"/>
      <point x="39" y="658"/>
      <point x="39" y="600" type="curve" smooth="yes"/>
      <point x="39" y="560"/>
      <point x="60" y="528"/>
      <point x="94" y="505" type="curve"/>
      <point x="44" y="474"/>
      <point x="32" y="439"/>
      <point x="32" y="407" type="curve" smooth="yes"/>
      <point x="32" y="335"/>
      <point x="83" y="299"/>
    </contour>
    <contour>
      <point x="140" y="348" type="curve" smooth="yes"/>
      <point x="118" y="348"/>
      <point x="84" y="359"/>
      <point x="84" y="409" type="curve" smooth="yes"/>
      <point x="84" y="433"/>
      <point x="99" y="463"/>
      <point x="131" y="484" type="curve"/>
      <point x="135" y="470"/>
      <point x="195" y="451"/>
      <point x="195" y="405" type="curve" smooth="yes"/>
      <point x="195" y="362"/>
      <point x="163" y="348"/>
    </contour>
    <contour>
      <point x="139" y="523" type="curve"/>
      <point x="111" y="546"/>
      <point x="90" y="570"/>
      <point x="90" y="598" type="curve" smooth="yes"/>
      <point x="90" y="630"/>
      <point x="113" y="649"/>
      <point x="137" y="649" type="curve" smooth="yes"/>
      <point x="164" y="649"/>
      <point x="184" y="627"/>
      <point x="184" y="592" type="curve" smooth="yes"/>
      <point x="184" y="563"/>
      <point x="167" y="542"/>
    </contour>
  </outline>
</glyph>
<glyph name="uni20B4" format="2">
  <advance width="430"/>
  <unicode hex="20B4"/>
  <outline>
    <contour>
      <point x="246" y="-12" type="curve" smooth="yes"/>
      <point x="261" y="-12"/>
      <point x="309" y="-8"/>
      <point x="362" y="20" type="curve"/>
      <point x="341" y="69" type="line"/>
      <point x="300" y="45"/>
      <point x="263" y="46"/>
      <point x="255" y="46" type="curve" smooth="yes"/>
      <point x="186" y="46"/>
      <point x="133" y="80"/>
      <point x="133" y="173" type="curve" smooth="yes"/>
      <point x="133" y="199"/>
      <point x="141" y="220"/>
      <point x="151" y="239" type="curve"/>
      <point x="400" y="239" type="line"/>
      <point x="400" y="283" type="line"/>
      <point x="172" y="283" type="line"/>
      <point x="170" y="309"/>
      <point x="263" y="346"/>
      <point x="322" y="409" type="curve"/>
      <point x="400" y="409" type="line"/>
      <point x="400" y="454" type="line"/>
      <point x="353" y="454" type="line"/>
      <point x="363" y="474"/>
      <point x="373" y="497"/>
      <point x="373" y="527" type="curve" smooth="yes"/>
      <point x="373" y="665"/>
      <point x="279" y="707"/>
      <point x="197" y="707" type="curve" smooth="yes"/>
      <point x="175" y="707"/>
      <point x="124" y="697"/>
      <point x="89" y="674" type="curve"/>
      <point x="112" y="624" type="line"/>
      <point x="150" y="645"/>
      <point x="184" y="649"/>
      <point x="195" y="649" type="curve" smooth="yes"/>
      <point x="270" y="649"/>
      <point x="311" y="606"/>
      <point x="311" y="532" type="curve" smooth="yes"/>
      <point x="311" y="504"/>
      <point x="298" y="477"/>
      <point x="280" y="454" type="curve"/>
      <point x="29" y="454" type="line"/>
      <point x="29" y="409" type="line"/>
      <point x="243" y="409" type="line"/>
      <point x="239" y="391"/>
      <point x="156" y="356"/>
      <point x="102" y="283" type="curve"/>
      <point x="29" y="283" type="line"/>
      <point x="29" y="239" type="line"/>
      <point x="82" y="239" type="line"/>
      <point x="74" y="212"/>
      <point x="69" y="203"/>
      <point x="69" y="171" type="curve" smooth="yes"/>
      <point x="69" y="41"/>
      <point x="157" y="-12"/>
    </contour>
  </outline>
</glyph>
<glyph name="trademark" format="2">
  <advance width="619"/>
  <unicode hex="2122"/>
  <outline>
    <contour>
      <point x="256" y="364" type="curve"/>
      <point x="304" y="364" type="line"/>
      <point x="305" y="472"/>
      <point x="309" y="555"/>
      <point x="316" y="652" type="curve"/>
      <point x="340" y="585"/>
      <point x="360" y="500"/>
      <point x="387" y="410" type="curve"/>
      <point x="429" y="410" type="line"/>
      <point x="453" y="496"/>
      <point x="475" y="587"/>
      <point x="502" y="650" type="curve"/>
      <point x="507" y="549"/>
      <point x="512" y="471"/>
      <point x="513" y="364" type="curve"/>
      <point x="559" y="364" type="line"/>
      <point x="558" y="451"/>
      <point x="555" y="538"/>
      <point x="541" y="695" type="curve"/>
      <point x="477" y="695" type="line"/>
      <point x="456" y="639"/>
      <point x="424" y="534"/>
      <point x="409" y="470" type="curve"/>
      <point x="394" y="533"/>
      <point x="360" y="638"/>
      <point x="338" y="695" type="curve"/>
      <point x="275" y="695" type="line"/>
      <point x="262" y="538"/>
      <point x="257" y="451"/>
    </contour>
    <contour>
      <point x="104" y="364" type="line"/>
      <point x="156" y="364" type="line"/>
      <point x="156" y="649" type="line"/>
      <point x="234" y="649" type="line"/>
      <point x="234" y="695" type="line"/>
      <point x="28" y="695" type="line"/>
      <point x="28" y="649" type="line"/>
      <point x="104" y="649" type="line"/>
    </contour>
  </outline>
</glyph>
<glyph name="approxequal" format="2">
  <advance width="429"/>
  <unicode hex="2248"/>
  <outline>
    <contour>
      <point x="290" y="146" type="curve" smooth="yes"/>
      <point x="348" y="146"/>
      <point x="383" y="184"/>
      <point x="398" y="266" type="curve"/>
      <point x="353" y="282" type="line"/>
      <point x="335" y="207"/>
      <point x="318" y="206"/>
      <point x="295" y="206" type="curve" smooth="yes"/>
      <point x="249" y="206"/>
      <point x="205" y="283"/>
      <point x="136" y="283" type="curve" smooth="yes"/>
      <point x="82" y="283"/>
      <point x="48" y="244"/>
      <point x="32" y="162" type="curve"/>
      <point x="77" y="147" type="line"/>
      <point x="100" y="227"/>
      <point x="116" y="222"/>
      <point x="139" y="222" type="curve" smooth="yes"/>
      <point x="186" y="222"/>
      <point x="221" y="146"/>
    </contour>
    <contour>
      <point x="290" y="320" type="curve" smooth="yes"/>
      <point x="348" y="320"/>
      <point x="383" y="358"/>
      <point x="398" y="440" type="curve"/>
      <point x="353" y="455" type="line"/>
      <point x="335" y="381"/>
      <point x="318" y="380"/>
      <point x="295" y="380" type="curve" smooth="yes"/>
      <point x="249" y="380"/>
      <point x="205" y="456"/>
      <point x="136" y="456" type="curve" smooth="yes"/>
      <point x="82" y="456"/>
      <point x="48" y="418"/>
      <point x="32" y="336" type="curve"/>
      <point x="77" y="321" type="line"/>
      <point x="100" y="400"/>
      <point x="116" y="396"/>
      <point x="139" y="396" type="curve" smooth="yes"/>
      <point x="186" y="396"/>
      <point x="221" y="320"/>
    </contour>
  </outline>
</glyph>
<glyph name="notequal" format="2">
  <advance width="430"/>
  <unicode hex="2260"/>
  <outline>
    <contour>
      <point x="154" y="56" type="line"/>
      <point x="199" y="177" type="line"/>
      <point x="385" y="177" type="line"/>
      <point x="385" y="230" type="line"/>
      <point x="218" y="230" type="line"/>
      <point x="271" y="368" type="line"/>
      <point x="385" y="368" type="line"/>
      <point x="385" y="421" type="line"/>
      <point x="290" y="421" type="line"/>
      <point x="328" y="521" type="line"/>
      <point x="274" y="538" type="line"/>
      <point x="230" y="421" type="line"/>
      <point x="45" y="421" type="line"/>
      <point x="45" y="368" type="line"/>
      <point x="211" y="368" type="line"/>
      <point x="158" y="230" type="line"/>
      <point x="45" y="230" type="line"/>
      <point x="45" y="177" type="line"/>
      <point x="140" y="177" type="line"/>
      <point x="101" y="74" type="line"/>
    </contour>
  </outline>
</glyph>
<glyph name="acute.asc" format="2">
  <advance width="314"/>
  <outline>
    <contour>
      <point x="88" y="826" type="line"/>
      <point x="239" y="884" type="line"/>
      <point x="219" y="937" type="line"/>
      <point x="73" y="862" type="line"/>
    </contour>
  </outline>
</glyph>
<glyph name="commaaccent" format="2">
  <anchor x="222" y="0" name="_bottom"/>
  <anchor x="222" y="-185" name="bottom"/>
  <outline>
    <contour>
      <point x="188" y="-185" type="curve" smooth="yes"/>
      <point x="245" y="-185"/>
      <point x="283" y="-157"/>
      <point x="283" y="-73" type="curve" smooth="yes"/>
      <point x="283" y="-66"/>
      <point x="283" y="-60"/>
      <point x="282" y="-55" type="curve"/>
      <point x="233" y="-55" type="line"/>
      <point x="233" y="-59"/>
      <point x="233" y="-64"/>
      <point x="233" y="-68" type="curve" smooth="yes"/>
      <point x="233" y="-124"/>
      <point x="207" y="-151"/>
      <point x="162" y="-143" type="curve"/>
      <point x="162" y="-182" type="line"/>
      <point x="168" y="-184"/>
      <point x="174" y="-185"/>
    </contour>
  </outline>
</glyph>
<glyph name="kratka" format="2">
  <advance width="310"/>
  <outline>
    <contour>
      <point x="151" y="614" type="curve" smooth="yes"/>
      <point x="211" y="614"/>
      <point x="254" y="649"/>
      <point x="266" y="729" type="curve"/>
      <point x="223" y="736" type="line"/>
      <point x="209" y="669"/>
      <point x="185" y="656"/>
      <point x="151" y="656" type="curve" smooth="yes"/>
      <point x="118" y="656"/>
      <point x="93" y="669"/>
      <point x="79" y="736" type="curve"/>
      <point x="36" y="729" type="line"/>
      <point x="48" y="649"/>
      <point x="91" y="614"/>
    </contour>
  </outline>
</glyph>
<glyph name="tonos.cap" format="2">
  <advance width="314"/>
  <anchor x="147" y="776" name="_top"/>
  <outline>
    <contour>
      <point x="138" y="496" type="line"/>
      <point x="197" y="689" type="line"/>
      <point x="141" y="708" type="line"/>
      <point x="97" y="510" type="line"/>
    </contour>
  </outline>
</glyph>
